<svg xmlns="http://www.w3.org/2000/svg" version="1.1" xmlns:xlink="http://www.w3.org/1999/xlink" xmlns:svgjs="http://svgjs.dev/svgjs" width="1000" height="1000" viewBox="0 0 1000 1000"><rect width="1000" height="1000" fill="#000000"></rect><g transform="matrix(0.7,0,0,0.7,149.57575757575756,282.1265587044535)"><svg viewBox="0 0 396 247" data-background-color="#161618" preserveAspectRatio="xMidYMid meet" height="623" width="1000" xmlns="http://www.w3.org/2000/svg" xmlns:xlink="http://www.w3.org/1999/xlink"><g id="tight-bounds" transform="matrix(1,0,0,1,0.2400000000000091,-0.09999999999999432)"><svg viewBox="0 0 395.52 247.2" height="247.2" width="395.52"><g><svg></svg></g><g><svg viewBox="0 0 395.52 247.2" height="247.2" width="395.52"><mask id="19cd98c8-83cc-43cd-aa91-d8db1f177452"><rect width="395.52" height="247.2" fill="white"></rect><g transform="matrix(1,0,0,1,0,77.89756664468557)" id="clone"><svg viewBox="0 0 395.52 91.40486671062885" height="91.40486671062885" width="395.52"><g><svg viewBox="0 0 395.52 91.40486671062885" height="91.40486671062885" width="395.52"><g><svg viewBox="0 0 395.52 91.40486671062885" height="91.40486671062885" width="395.52"><g><svg viewBox="0 0 395.52 91.40486671062885" height="91.40486671062885" width="395.52"><g id="SvgjsG1003"><svg viewBox="0 0 395.52 91.40486671062885" height="91.40486671062885" width="395.52" id="SvgjsSvg1002"><g><svg viewBox="0 0 395.52 57.86294432426278" height="57.86294432426278" width="395.52"><g transform="matrix(1,0,0,1,0,0)"><svg width="395.52" viewBox="0 -42.55 310.96823529411756 46.349999999999994" height="57.86294432426278" data-palette-color="#ffffff"><path d="M22.55 0.5L22.55 0.5Q18.55 0.5 15.03-1.07 11.5-2.65 8.8-5.43 6.1-8.2 4.55-11.83 3-15.45 3-19.55L3-19.55Q3-23.6 4.5-27.23 6-30.85 8.68-33.63 11.35-36.4 14.9-37.98 18.45-39.55 22.55-39.55L22.55-39.55Q26-39.55 29.1-38.45 32.2-37.35 34.9-35.1L34.9-35.1Q35.35-34.75 35.35-34.13 35.35-33.5 34.95-33.02 34.55-32.55 33.85-32.55L33.85-32.55Q33.65-32.55 33.45-32.63 33.25-32.7 33.05-32.83 32.85-32.95 32.6-33.15L32.6-33.15Q30.6-34.95 28.05-35.75 25.5-36.55 22.55-36.55L22.55-36.55Q19.2-36.55 16.2-35.18 13.2-33.8 10.9-31.43 8.6-29.05 7.3-26 6-22.95 6-19.55L6-19.55Q6-16.05 7.3-12.95 8.6-9.85 10.88-7.5 13.15-5.15 16.15-3.83 19.15-2.5 22.55-2.5L22.55-2.5Q25.5-2.5 28.08-3.4 30.65-4.3 32.9-6.15L32.9-6.15Q33.3-6.5 33.85-6.4 34.4-6.3 34.8-5.9 35.2-5.5 35.2-4.85L35.2-4.85Q35.2-4.55 35.15-4.3 35.1-4.05 34.85-3.8L34.85-3.8Q32.4-1.35 29.18-0.43 25.95 0.5 22.55 0.5ZM40.8 0L40.8 0Q39.85 0 39.47-0.75 39.1-1.5 39.45-2.15L39.45-2.15 54.6-38Q55-39.05 56.05-39.05L56.05-39.05Q57.05-39.05 57.5-38L57.5-38 72.7-2.15Q73.1-1.45 72.65-0.73 72.2 0 71.35 0L71.35 0Q70.85 0 70.52-0.23 70.2-0.45 69.95-0.95L69.95-0.95 55.25-36 56.85-36 42.2-0.95Q42-0.45 41.65-0.23 41.3 0 40.8 0ZM67.65-9.8L44.5-9.8 45.7-12.5 66.5-12.5 67.65-9.8ZM102.05 0L80 0Q79.4 0 78.95-0.43 78.5-0.85 78.5-1.5L78.5-1.5 78.5-37.55Q78.5-38.2 78.95-38.63 79.4-39.05 80-39.05L80-39.05Q80.65-39.05 81.07-38.63 81.5-38.2 81.5-37.55L81.5-37.55 81.5-2.7 102.05-2.7Q102.75-2.7 103.15-2.33 103.55-1.95 103.55-1.35L103.55-1.35Q103.55-0.75 103.15-0.38 102.75 0 102.05 0L102.05 0ZM117.39 0L117.39 0Q116.44 0 116.04-0.95L116.04-0.95 101.04-36.6Q100.54-37.75 101.02-38.4 101.49-39.05 102.34-39.05L102.34-39.05Q103.29-39.05 103.79-38L103.79-38 118.19-3.55 116.74-3.55 130.94-37.8Q131.19-38.5 131.59-38.78 131.99-39.05 132.59-39.05L132.59-39.05Q133.49-39.05 133.79-38.3 134.09-37.55 133.69-36.6L133.69-36.6 118.74-0.95Q118.49-0.4 118.12-0.2 117.74 0 117.39 0ZM141.39 0L141.39 0Q140.74 0 140.32-0.43 139.89-0.85 139.89-1.5L139.89-1.5 139.89-37.55Q139.89-38.2 140.32-38.63 140.74-39.05 141.39-39.05L141.39-39.05Q142.04-39.05 142.47-38.63 142.89-38.2 142.89-37.55L142.89-37.55 142.89-1.5Q142.89-0.85 142.47-0.43 142.04 0 141.39 0ZM154.39 0L154.39 0Q153.74 0 153.31-0.43 152.89-0.85 152.89-1.5L152.89-1.5 152.89-37.55Q152.89-38.2 153.31-38.63 153.74-39.05 154.39-39.05L154.39-39.05Q155.09-39.05 155.54-38.55L155.54-38.55 180.94-5.5 180.94-37.55Q180.94-38.2 181.36-38.63 181.79-39.05 182.44-39.05L182.44-39.05Q183.04-39.05 183.49-38.63 183.94-38.2 183.94-37.55L183.94-37.55 183.94-1.5Q183.94-0.85 183.49-0.43 183.04 0 182.44 0L182.44 0Q182.09 0 181.81-0.13 181.54-0.25 181.34-0.45L181.34-0.45 155.89-33.55 155.89-1.5Q155.89-0.85 155.46-0.43 155.04 0 154.39 0ZM232.13 0L210.08 0Q209.48 0 209.03-0.43 208.58-0.85 208.58-1.5L208.58-1.5 208.58-37.55Q208.58-38.2 209.03-38.63 209.48-39.05 210.08-39.05L210.08-39.05Q210.73-39.05 211.16-38.63 211.58-38.2 211.58-37.55L211.58-37.55 211.58-2.7 232.13-2.7Q232.83-2.7 233.23-2.33 233.63-1.95 233.63-1.35L233.63-1.35Q233.63-0.75 233.23-0.38 232.83 0 232.13 0L232.13 0ZM254.88 0.8L254.88 0.8Q250.48 0.8 247.11-0.93 243.73-2.65 241.81-5.73 239.88-8.8 239.88-12.75L239.88-12.75 239.88-37.55Q239.88-38.25 240.31-38.65 240.73-39.05 241.38-39.05L241.38-39.05Q242.08-39.05 242.48-38.65 242.88-38.25 242.88-37.55L242.88-37.55 242.88-12.75Q242.88-9.65 244.41-7.28 245.93-4.9 248.66-3.55 251.38-2.2 254.88-2.2L254.88-2.2Q258.43-2.2 261.13-3.55 263.83-4.9 265.38-7.28 266.93-9.65 266.93-12.75L266.93-12.75 266.93-37.55Q266.93-38.25 267.36-38.65 267.78-39.05 268.43-39.05L268.43-39.05Q269.13-39.05 269.53-38.65 269.93-38.25 269.93-37.55L269.93-37.55 269.93-12.75Q269.93-8.8 268.01-5.73 266.08-2.65 262.68-0.93 259.28 0.8 254.88 0.8ZM275.88 0L275.88 0Q274.93 0 274.55-0.75 274.18-1.5 274.53-2.15L274.53-2.15 289.68-38Q290.08-39.05 291.13-39.05L291.13-39.05Q292.13-39.05 292.58-38L292.58-38 307.78-2.15Q308.18-1.45 307.73-0.73 307.28 0 306.43 0L306.43 0Q305.93 0 305.6-0.23 305.28-0.45 305.03-0.95L305.03-0.95 290.33-36 291.93-36 277.28-0.95Q277.08-0.45 276.73-0.23 276.38 0 275.88 0ZM302.73-9.8L279.58-9.8 280.78-12.5 301.58-12.5 302.73-9.8Z" opacity="1" transform="matrix(1,0,0,1,0,0)" fill="black" class="wordmark-text-0" id="SvgjsPath1001" stroke-width="5" stroke="black" stroke-linejoin="round"></path></svg></g></svg></g><g transform="matrix(1,0,0,1,2.5,65.37560030670159)"><svg viewBox="0 0 390.52 26.029266403927263" height="26.029266403927263" width="390.52"><g transform="matrix(1,0,0,1,0,0)"><svg width="390.52" viewBox="0.4500000000000002 -36.2 724.0799999999999 49.2" height="26.029266403927263" data-palette-color="#ffffff"><path d="M10.8-12L10.8-12 6.2-12 6.2 0 3.45 0 3.45-32.75 10.8-32.75Q16.8-32.75 19.68-30.48 22.55-28.2 22.55-22.6 22.55-17 19.65-14.5 16.75-12 10.8-12ZM10.8-30.25L10.8-30.25 6.2-30.25 6.2-14.5 10.8-14.5Q15.4-14.5 17.53-16.35 19.65-18.2 19.65-22.55 19.65-26.9 17.55-28.58 15.45-30.25 10.8-30.25ZM35.9-2.15L35.9-2.15Q37.75-2.15 39.92-3.33 42.1-4.5 43.1-5.5L43.1-5.5 43.1-11.45Q39.8-11.7 36.8-11.7 33.8-11.7 32.3-10.43 30.8-9.15 30.8-7L30.8-7Q30.8-2.15 35.9-2.15ZM35.85 0.45L35.85 0.45Q32.2 0.45 30.1-1.43 28-3.3 28-6.75 28-10.2 30.3-12.1L30.3-12.1Q32.6-14.05 36.4-14.05 40.2-14.05 43.1-13.75L43.1-13.75Q43.1-18.2 42-19.83 40.9-21.45 37.55-21.45 34.2-21.45 29.65-19.85L29.65-19.85 28.9-22.35Q33.55-24.05 37.3-24.05L37.3-24.05Q42.25-24.05 44-21.85 45.75-19.65 45.75-14.15L45.75-14.15 45.75-3.65 46.15 0.15 43.6 0.4 43.1-2.6Q41.95-1.6 39.85-0.58 37.75 0.45 35.85 0.45ZM53.9-1.15L53.9-1.15 54.55-3.75Q59.5-2.1 62.2-2.1 64.9-2.1 66.37-3.28 67.84-4.45 67.84-6.4 67.84-8.35 66.67-9.28 65.5-10.2 61.8-11.05 58.1-11.9 56.25-13.5L56.25-13.5Q54.4-15 54.4-18 54.4-21 56.67-22.58 58.95-24.15 62.55-24.15 66.15-24.15 70.34-22.55L70.34-22.55 69.65-20.2Q65.4-21.6 62.8-21.6 60.2-21.6 58.7-20.7L58.7-20.7Q57.2-19.7 57.2-18 57.2-16.3 58.52-15.35 59.85-14.4 63.65-13.45 67.45-12.5 69.05-11.03 70.65-9.55 70.65-6.4 70.65-3.25 68.5-1.4L68.5-1.4Q66.4 0.45 62.5 0.45 58.6 0.45 53.9-1.15ZM78.89-1.15L78.89-1.15 79.54-3.75Q84.49-2.1 87.19-2.1 89.89-2.1 91.37-3.28 92.84-4.45 92.84-6.4 92.84-8.35 91.67-9.28 90.49-10.2 86.79-11.05 83.09-11.9 81.24-13.5L81.24-13.5Q79.39-15 79.39-18 79.39-21 81.67-22.58 83.94-24.15 87.54-24.15 91.14-24.15 95.34-22.55L95.34-22.55 94.64-20.2Q90.39-21.6 87.79-21.6 85.19-21.6 83.69-20.7L83.69-20.7Q82.19-19.7 82.19-18 82.19-16.3 83.52-15.35 84.84-14.4 88.64-13.45 92.44-12.5 94.04-11.03 95.64-9.55 95.64-6.4 95.64-3.25 93.49-1.4L93.49-1.4Q91.39 0.45 87.49 0.45 83.59 0.45 78.89-1.15ZM111.94-21.25L106.14-21.25 106.14-23.75 114.59-23.75 114.59-2.5 120.39-2.5 120.39 0 105.74 0 105.74-2.5 111.94-2.5 111.94-21.25ZM113.04-28.55Q112.14-28.55 111.52-29.18 110.89-29.8 110.89-30.78 110.89-31.75 111.52-32.33 112.14-32.9 113.04-32.9 113.94-32.9 114.52-32.35 115.09-31.8 115.09-30.8 115.09-29.8 114.52-29.18 113.94-28.55 113.04-28.55ZM127.94-11.8Q127.94-24.05 137.49-24.05 147.04-24.05 147.04-11.8 147.04 0.45 137.49 0.45 127.94 0.45 127.94-11.8ZM137.49-21.45Q130.79-21.45 130.79-11.8 130.79-2.15 137.49-2.15 144.19-2.15 144.19-11.8 144.19-21.45 137.49-21.45ZM153.79-23.75L156.34-23.75 156.44-21.75Q161.29-24.05 164.49-24.05 167.69-24.05 169.51-21.85 171.34-19.65 171.34-15.85L171.34-15.85 171.34 0 168.69 0 168.69-15.85Q168.69-18.3 167.49-19.9L167.49-19.9Q166.29-21.45 163.89-21.45 161.49-21.45 156.44-19.25L156.44-19.25 156.44 0 153.79 0 153.79-23.75ZM185.88-2.15L185.88-2.15Q187.73-2.15 189.91-3.33 192.08-4.5 193.08-5.5L193.08-5.5 193.08-11.45Q189.78-11.7 186.78-11.7 183.78-11.7 182.28-10.43 180.78-9.15 180.78-7L180.78-7Q180.78-2.15 185.88-2.15ZM185.83 0.45L185.83 0.45Q182.18 0.45 180.08-1.43 177.98-3.3 177.98-6.75 177.98-10.2 180.28-12.1L180.28-12.1Q182.58-14.05 186.38-14.05 190.18-14.05 193.08-13.75L193.08-13.75Q193.08-18.2 191.98-19.83 190.88-21.45 187.53-21.45 184.18-21.45 179.63-19.85L179.63-19.85 178.88-22.35Q183.53-24.05 187.28-24.05L187.28-24.05Q192.23-24.05 193.98-21.85 195.73-19.65 195.73-14.15L195.73-14.15 195.73-3.65 196.13 0.15 193.58 0.4 193.08-2.6Q191.93-1.6 189.83-0.58 187.73 0.45 185.83 0.45ZM207.98-9.1L207.98-20.9 203.78-20.9 203.78-23.4 207.98-23.4 207.98-29.15 210.63-29.65 210.63-23.4 220.13-23.4 220.13-20.9 210.63-20.9 210.63-9.2Q210.63-5.3 211.41-3.7 212.18-2.1 214.58-2.1 216.98-2.1 219.88-3.05L219.88-3.05 220.48-0.55Q217.58 0.5 215.08 0.5 212.58 0.5 211.16-0.15 209.73-0.8 209.06-2.23 208.38-3.65 208.18-5.15 207.98-6.65 207.98-9.1L207.98-9.1ZM228.33-11.85Q228.33-17.6 230.7-20.83 233.08-24.05 237.63-24.05 242.18-24.05 244.4-21.05 246.63-18.05 246.63-13.05L246.63-13.05 246.48-10.55 231.18-10.55Q231.43-6.8 233.18-4.48 234.93-2.15 238-2.15 241.08-2.15 245.23-3.6L245.23-3.6 245.98-1.1Q241.93 0.45 238.38 0.45L238.38 0.45Q233.48 0.45 230.9-2.83 228.33-6.1 228.33-11.85ZM237.83-21.5L237.83-21.5Q231.53-21.5 231.18-13.05L231.18-13.05 243.78-13.05Q243.78-21.5 237.83-21.5ZM280.07 0L277.37 0 277.37-32.75 280.02-32.75 287.07-14.4 287.82-14.4 294.87-32.75 297.52-32.75 297.52 0 294.82 0 294.82-25.4 294.62-25.4 289.37-11.85 285.52-11.85 280.27-25.45 280.07-25.45 280.07 0ZM310.87-2.15L310.87-2.15Q312.72-2.15 314.9-3.33 317.07-4.5 318.07-5.5L318.07-5.5 318.07-11.45Q314.77-11.7 311.77-11.7 308.77-11.7 307.27-10.43 305.77-9.15 305.77-7L305.77-7Q305.77-2.15 310.87-2.15ZM310.82 0.45L310.82 0.45Q307.17 0.45 305.07-1.43 302.97-3.3 302.97-6.75 302.97-10.2 305.27-12.1L305.27-12.1Q307.57-14.05 311.37-14.05 315.17-14.05 318.07-13.75L318.07-13.75Q318.07-18.2 316.97-19.83 315.87-21.45 312.52-21.45 309.17-21.45 304.62-19.85L304.62-19.85 303.87-22.35Q308.52-24.05 312.27-24.05L312.27-24.05Q317.22-24.05 318.97-21.85 320.72-19.65 320.72-14.15L320.72-14.15 320.72-3.65 321.12 0.15 318.57 0.4 318.07-2.6Q316.92-1.6 314.82-0.58 312.72 0.45 310.82 0.45ZM345.62-16L342.92-16 342.92-20.95Q340.47-21.5 339.02-21.5L339.02-21.5Q335.42-21.5 333.64-18.95 331.87-16.4 331.87-11.9 331.87-7.4 333.67-4.78 335.47-2.15 339.02-2.15L339.02-2.15Q341.27-2.15 345.27-3.55L345.27-3.55 346.02-1.05Q342.07 0.45 339.07 0.45L339.07 0.45Q334.17 0.45 331.59-2.83 329.02-6.1 329.02-11.95 329.02-17.8 331.57-20.93 334.12-24.05 339.07-24.05L339.07-24.05Q342.37-24.05 345.62-23L345.62-23 345.62-16ZM356.52-19.4L356.52-19.4 356.52 0 353.87 0 353.87-33.2 356.52-33.2 356.52-21.95Q361.22-24.05 364.27-24.05L364.27-24.05Q371.42-24.05 371.42-15.85L371.42-15.85 371.42 0 368.77 0 368.77-15.85Q368.77-18.4 367.67-19.93 366.57-21.45 363.87-21.45 361.17-21.45 356.52-19.4ZM386.91-21.25L381.11-21.25 381.11-23.75 389.56-23.75 389.56-2.5 395.36-2.5 395.36 0 380.71 0 380.71-2.5 386.91-2.5 386.91-21.25ZM388.01-28.55Q387.11-28.55 386.49-29.18 385.86-29.8 385.86-30.78 385.86-31.75 386.49-32.33 387.11-32.9 388.01-32.9 388.91-32.9 389.49-32.35 390.06-31.8 390.06-30.8 390.06-29.8 389.49-29.18 388.91-28.55 388.01-28.55ZM403.76-23.75L406.31-23.75 406.41-21.75Q411.26-24.05 414.46-24.05 417.66-24.05 419.49-21.85 421.31-19.65 421.31-15.85L421.31-15.85 421.31 0 418.66 0 418.66-15.85Q418.66-18.3 417.46-19.9L417.46-19.9Q416.26-21.45 413.86-21.45 411.46-21.45 406.41-19.25L406.41-19.25 406.41 0 403.76 0 403.76-23.75ZM428.31-11.85Q428.31-17.6 430.68-20.83 433.06-24.05 437.61-24.05 442.16-24.05 444.38-21.05 446.61-18.05 446.61-13.05L446.61-13.05 446.46-10.55 431.16-10.55Q431.41-6.8 433.16-4.48 434.91-2.15 437.98-2.15 441.06-2.15 445.21-3.6L445.21-3.6 445.96-1.1Q441.91 0.45 438.36 0.45L438.36 0.45Q433.46 0.45 430.88-2.83 428.31-6.1 428.31-11.85ZM437.81-21.5L437.81-21.5Q431.51-21.5 431.16-13.05L431.16-13.05 443.76-13.05Q443.76-21.5 437.81-21.5ZM485.75-12L485.75-12 481.15-12 481.15 0 478.4 0 478.4-32.75 485.75-32.75Q491.75-32.75 494.63-30.48 497.5-28.2 497.5-22.6 497.5-17 494.6-14.5 491.7-12 485.75-12ZM485.75-30.25L485.75-30.25 481.15-30.25 481.15-14.5 485.75-14.5Q490.35-14.5 492.48-16.35 494.6-18.2 494.6-22.55 494.6-26.9 492.5-28.58 490.4-30.25 485.75-30.25ZM509.2-21.25L504.5-21.25 504.5-23.75 511.85-23.75 511.95-20.85Q513.55-21.85 516.45-22.85 519.35-23.85 521.55-24.05L521.55-24.05 521.55-21.1Q519.5-20.95 516.48-20.1 513.45-19.25 511.95-18.35L511.95-18.35 511.95-2.5 519.95-2.5 519.95 0 504.5 0 504.5-2.5 509.2-2.5 509.2-21.25ZM527.9-11.8Q527.9-24.05 537.45-24.05 547-24.05 547-11.8 547 0.45 537.45 0.45 527.9 0.45 527.9-11.8ZM537.45-21.45Q530.75-21.45 530.75-11.8 530.75-2.15 537.45-2.15 544.15-2.15 544.15-11.8 544.15-21.45 537.45-21.45ZM571.34-23.75L571.34-5.75 571.49 1.15Q571.49 5.6 568.82 7.8 566.14 10 562.19 10 558.24 10 553.19 8L553.19 8 554.09 5.5Q559.04 7.4 561.97 7.4 564.89 7.4 566.87 5.88 568.84 4.35 568.84 1.2L568.84 1.2Q568.84 0.8 568.77-0.58 568.69-1.95 568.69-2.6L568.69-2.6Q565.04-0.05 561.89-0.05L561.89-0.05Q557.39-0.05 554.97-3.13 552.54-6.2 552.54-11.88 552.54-17.55 555.24-20.8 557.94-24.05 562.74-24.05L562.74-24.05Q565.39-24.05 568.69-22.3L568.69-22.3 568.79-23.75 571.34-23.75ZM555.39-11.93Q555.39-7.55 557.09-5.1 558.79-2.65 562.04-2.65 565.29-2.65 568.69-5.5L568.69-5.5 568.69-19.5Q565.59-21.45 562.84-21.45L562.84-21.45Q559.29-21.45 557.34-18.88 555.39-16.3 555.39-11.93ZM584.19-21.25L579.49-21.25 579.49-23.75 586.84-23.75 586.94-20.85Q588.54-21.85 591.44-22.85 594.34-23.85 596.54-24.05L596.54-24.05 596.54-21.1Q594.49-20.95 591.47-20.1 588.44-19.25 586.94-18.35L586.94-18.35 586.94-2.5 594.94-2.5 594.94 0 579.49 0 579.49-2.5 584.19-2.5 584.19-21.25ZM610.84-2.15L610.84-2.15Q612.69-2.15 614.86-3.33 617.04-4.5 618.04-5.5L618.04-5.5 618.04-11.45Q614.74-11.7 611.74-11.7 608.74-11.7 607.24-10.43 605.74-9.15 605.74-7L605.74-7Q605.74-2.15 610.84-2.15ZM610.79 0.45L610.79 0.45Q607.14 0.45 605.04-1.43 602.94-3.3 602.94-6.75 602.94-10.2 605.24-12.1L605.24-12.1Q607.54-14.05 611.34-14.05 615.14-14.05 618.04-13.75L618.04-13.75Q618.04-18.2 616.94-19.83 615.84-21.45 612.49-21.45 609.14-21.45 604.59-19.85L604.59-19.85 603.84-22.35Q608.49-24.05 612.24-24.05L612.24-24.05Q617.19-24.05 618.94-21.85 620.69-19.65 620.69-14.15L620.69-14.15 620.69-3.65 621.09 0.15 618.54 0.4 618.04-2.6Q616.89-1.6 614.79-0.58 612.69 0.45 610.79 0.45ZM626.69-23.75L629.19-23.75 629.34-22.25Q631.84-24.05 633.19-24.05L633.19-24.05Q636.49-24.05 637.74-21.9L637.74-21.9Q640.54-24.05 642.64-24.05L642.64-24.05Q645.89-24.05 647.09-22.05 648.29-20.05 648.29-15.9L648.29-15.9 648.29 0 645.64 0 645.64-15.9Q645.64-18.75 645.04-20.13 644.44-21.5 642.74-21.5 641.04-21.5 638.54-19.9L638.54-19.9Q638.84-18.2 638.84-15.9L638.84-15.9 638.84-7.6 636.19-7.6 636.19-15.9Q636.19-18.75 635.59-20.1L635.59-20.1Q634.94-21.5 633.24-21.5 631.54-21.5 629.34-19.9L629.34-19.9 629.34 0 626.69 0 626.69-23.75ZM651.68-23.75L654.18-23.75 654.33-22.25Q656.83-24.05 658.18-24.05L658.18-24.05Q661.48-24.05 662.73-21.9L662.73-21.9Q665.53-24.05 667.63-24.05L667.63-24.05Q670.88-24.05 672.08-22.05 673.28-20.05 673.28-15.9L673.28-15.9 673.28 0 670.63 0 670.63-15.9Q670.63-18.75 670.03-20.13 669.43-21.5 667.73-21.5 666.03-21.5 663.53-19.9L663.53-19.9Q663.83-18.2 663.83-15.9L663.83-15.9 663.83-7.6 661.18-7.6 661.18-15.9Q661.18-18.75 660.58-20.1L660.58-20.1Q659.93-21.5 658.23-21.5 656.53-21.5 654.33-19.9L654.33-19.9 654.33 0 651.68 0 651.68-23.75ZM678.28-11.85Q678.28-17.6 680.66-20.83 683.03-24.05 687.58-24.05 692.13-24.05 694.36-21.05 696.58-18.05 696.58-13.05L696.58-13.05 696.43-10.55 681.13-10.55Q681.38-6.8 683.13-4.48 684.88-2.15 687.96-2.15 691.03-2.15 695.18-3.6L695.18-3.6 695.93-1.1Q691.88 0.45 688.33 0.45L688.33 0.45Q683.43 0.45 680.86-2.83 678.28-6.1 678.28-11.85ZM687.78-21.5L687.78-21.5Q681.48-21.5 681.13-13.05L681.13-13.05 693.73-13.05Q693.73-21.5 687.78-21.5ZM709.18-21.25L704.48-21.25 704.48-23.75 711.83-23.75 711.93-20.85Q713.53-21.85 716.43-22.85 719.33-23.85 721.53-24.05L721.53-24.05 721.53-21.1Q719.48-20.95 716.45-20.1 713.43-19.25 711.93-18.35L711.93-18.35 711.93-2.5 719.93-2.5 719.93 0 704.48 0 704.48-2.5 709.18-2.5 709.18-21.25Z" opacity="1" transform="matrix(1,0,0,1,0,0)" fill="black" class="slogan-text-1" id="SvgjsPath1000" stroke-width="5" stroke="black" stroke-linejoin="round"></path></svg></g></svg></g></svg></g></svg></g><g></g></svg></g></svg></g></svg></g></mask><g mask="url(#19cd98c8-83cc-43cd-aa91-d8db1f177452)"><g><path d="M118.635 244.093v0c-16.046 0-31.129-3.149-45.249-9.447-14.16-6.338-26.656-15.083-37.487-26.235-10.831-11.112-19.355-23.948-25.572-38.509-6.218-14.521-9.327-30.005-9.327-46.452v0c0-16.246 3.009-31.65 9.026-46.212 6.017-14.521 14.401-27.358 25.151-38.51 10.71-11.112 23.186-19.836 37.427-26.174 14.241-6.298 29.584-9.447 46.031-9.447v0c13.839 0 26.977 2.206 39.412 6.619 12.435 4.413 24.069 11.132 34.899 20.157v0c1.805 1.404 2.708 3.35 2.708 5.837 0 2.527-0.802 4.754-2.407 6.679-1.605 1.885-3.811 2.828-6.619 2.828v0c-0.802 0-1.605-0.16-2.407-0.481-0.802-0.281-1.605-0.682-2.406-1.204-0.802-0.481-1.705-1.123-2.708-1.925v0c-8.023-7.221-17.149-12.435-27.378-15.645-10.229-3.209-21.261-4.814-33.094-4.814v0c-13.438 0-26.174 2.748-38.209 8.244-12.034 5.536-22.665 13.057-31.891 22.564-9.226 9.547-16.447 20.438-21.661 32.673-5.215 12.235-7.822 25.172-7.823 38.811v0c0 14.04 2.607 27.278 7.823 39.713 5.215 12.435 12.395 23.366 21.541 32.793 9.106 9.427 19.676 16.788 31.71 22.083 12.034 5.335 24.871 8.003 38.51 8.003v0c11.834 0 22.925-1.805 33.275-5.416 10.309-3.61 19.977-9.126 29.002-16.547v0c1.605-1.404 3.51-1.905 5.716-1.504 2.206 0.401 4.112 1.404 5.717 3.008 1.605 1.605 2.407 3.711 2.406 6.318v0c0 1.203-0.1 2.307-0.3 3.31-0.201 1.003-0.802 2.006-1.806 3.008v0c-9.828 9.828-21.2 16.587-34.117 20.278-12.957 3.731-26.255 5.596-39.893 5.596zM385.494 241.084h-132.677c-2.407 0-4.513-0.862-6.318-2.587-1.805-1.685-2.708-3.831-2.708-6.438v0-216.918c0-2.607 0.903-4.774 2.708-6.498 1.805-1.685 3.911-2.527 6.318-2.527v0c2.607 0 4.774 0.842 6.498 2.527 1.685 1.725 2.527 3.891 2.527 6.498v0 209.697h123.652c2.808 0 5.014 0.742 6.619 2.226 1.605 1.524 2.407 3.49 2.407 5.897v0c0 2.407-0.802 4.352-2.407 5.837-1.605 1.524-3.811 2.287-6.619 2.286z" fill="#ffffff" fill-rule="nonzero" stroke="none" stroke-width="1" stroke-linecap="butt" stroke-linejoin="miter" stroke-miterlimit="10" stroke-dasharray="" stroke-dashoffset="0" font-family="none" font-weight="none" font-size="none" text-anchor="none" style="mix-blend-mode: normal" data-fill-palette-color="tertiary"></path></g></g><g transform="matrix(1,0,0,1,0,77.89756664468557)"><svg viewBox="0 0 395.52 91.40486671062885" height="91.40486671062885" width="395.52"><g><svg viewBox="0 0 395.52 91.40486671062885" height="91.40486671062885" width="395.52"><g><svg viewBox="0 0 395.52 91.40486671062885" height="91.40486671062885" width="395.52"><g><svg viewBox="0 0 395.52 91.40486671062885" height="91.40486671062885" width="395.52"><g id="textblocktransform"><svg viewBox="0 0 395.52 91.40486671062885" height="91.40486671062885" width="395.52" id="textblock"><g><svg viewBox="0 0 395.52 57.86294432426278" height="57.86294432426278" width="395.52"><g transform="matrix(1,0,0,1,0,0)"><svg width="395.52" viewBox="0 -42.55 310.96823529411756 46.349999999999994" height="57.86294432426278" data-palette-color="#ffffff"><path d="M22.55 0.5L22.55 0.5Q18.55 0.5 15.03-1.07 11.5-2.65 8.8-5.43 6.1-8.2 4.55-11.83 3-15.45 3-19.55L3-19.55Q3-23.6 4.5-27.23 6-30.85 8.68-33.63 11.35-36.4 14.9-37.98 18.45-39.55 22.55-39.55L22.55-39.55Q26-39.55 29.1-38.45 32.2-37.35 34.9-35.1L34.9-35.1Q35.35-34.75 35.35-34.13 35.35-33.5 34.95-33.02 34.55-32.55 33.85-32.55L33.85-32.55Q33.65-32.55 33.45-32.63 33.25-32.7 33.05-32.83 32.85-32.95 32.6-33.15L32.6-33.15Q30.6-34.95 28.05-35.75 25.5-36.55 22.55-36.55L22.55-36.55Q19.2-36.55 16.2-35.18 13.2-33.8 10.9-31.43 8.6-29.05 7.3-26 6-22.95 6-19.55L6-19.55Q6-16.05 7.3-12.95 8.6-9.85 10.88-7.5 13.15-5.15 16.15-3.83 19.15-2.5 22.55-2.5L22.55-2.5Q25.5-2.5 28.08-3.4 30.65-4.3 32.9-6.15L32.9-6.15Q33.3-6.5 33.85-6.4 34.4-6.3 34.8-5.9 35.2-5.5 35.2-4.85L35.2-4.85Q35.2-4.55 35.15-4.3 35.1-4.05 34.85-3.8L34.85-3.8Q32.4-1.35 29.18-0.43 25.95 0.5 22.55 0.5ZM40.8 0L40.8 0Q39.85 0 39.47-0.75 39.1-1.5 39.45-2.15L39.45-2.15 54.6-38Q55-39.05 56.05-39.05L56.05-39.05Q57.05-39.05 57.5-38L57.5-38 72.7-2.15Q73.1-1.45 72.65-0.73 72.2 0 71.35 0L71.35 0Q70.85 0 70.52-0.23 70.2-0.45 69.95-0.95L69.95-0.95 55.25-36 56.85-36 42.2-0.95Q42-0.45 41.65-0.23 41.3 0 40.8 0ZM67.65-9.8L44.5-9.8 45.7-12.5 66.5-12.5 67.65-9.8ZM102.05 0L80 0Q79.4 0 78.95-0.43 78.5-0.85 78.5-1.5L78.5-1.5 78.5-37.55Q78.5-38.2 78.95-38.63 79.4-39.05 80-39.05L80-39.05Q80.65-39.05 81.07-38.63 81.5-38.2 81.5-37.55L81.5-37.55 81.5-2.7 102.05-2.7Q102.75-2.7 103.15-2.33 103.55-1.95 103.55-1.35L103.55-1.35Q103.55-0.75 103.15-0.38 102.75 0 102.05 0L102.05 0ZM117.39 0L117.39 0Q116.44 0 116.04-0.95L116.04-0.95 101.04-36.6Q100.54-37.75 101.02-38.4 101.49-39.05 102.34-39.05L102.34-39.05Q103.29-39.05 103.79-38L103.79-38 118.19-3.55 116.74-3.55 130.94-37.8Q131.19-38.5 131.59-38.78 131.99-39.05 132.59-39.05L132.59-39.05Q133.49-39.05 133.79-38.3 134.09-37.55 133.69-36.6L133.69-36.6 118.74-0.95Q118.49-0.4 118.12-0.2 117.74 0 117.39 0ZM141.39 0L141.39 0Q140.74 0 140.32-0.43 139.89-0.85 139.89-1.5L139.89-1.5 139.89-37.55Q139.89-38.2 140.32-38.63 140.74-39.05 141.39-39.05L141.39-39.05Q142.04-39.05 142.47-38.63 142.89-38.2 142.89-37.55L142.89-37.55 142.89-1.5Q142.89-0.85 142.47-0.43 142.04 0 141.39 0ZM154.39 0L154.39 0Q153.74 0 153.31-0.43 152.89-0.85 152.89-1.5L152.89-1.5 152.89-37.55Q152.89-38.2 153.31-38.63 153.74-39.05 154.39-39.05L154.39-39.05Q155.09-39.05 155.54-38.55L155.54-38.55 180.94-5.5 180.94-37.55Q180.94-38.2 181.36-38.63 181.79-39.05 182.44-39.05L182.44-39.05Q183.04-39.05 183.49-38.63 183.94-38.2 183.94-37.55L183.94-37.55 183.94-1.5Q183.94-0.85 183.49-0.43 183.04 0 182.44 0L182.44 0Q182.09 0 181.81-0.13 181.54-0.25 181.34-0.45L181.34-0.45 155.89-33.55 155.89-1.5Q155.89-0.85 155.46-0.43 155.04 0 154.39 0ZM232.13 0L210.08 0Q209.48 0 209.03-0.43 208.58-0.85 208.58-1.5L208.58-1.5 208.58-37.55Q208.58-38.2 209.03-38.63 209.48-39.05 210.08-39.05L210.08-39.05Q210.73-39.05 211.16-38.63 211.58-38.2 211.58-37.55L211.58-37.55 211.58-2.7 232.13-2.7Q232.83-2.7 233.23-2.33 233.63-1.95 233.63-1.35L233.63-1.35Q233.63-0.75 233.23-0.38 232.83 0 232.13 0L232.13 0ZM254.88 0.8L254.88 0.8Q250.48 0.8 247.11-0.93 243.73-2.65 241.81-5.73 239.88-8.8 239.88-12.75L239.88-12.75 239.88-37.55Q239.88-38.25 240.31-38.65 240.73-39.05 241.38-39.05L241.38-39.05Q242.08-39.05 242.48-38.65 242.88-38.25 242.88-37.55L242.88-37.55 242.88-12.75Q242.88-9.65 244.41-7.28 245.93-4.9 248.66-3.55 251.38-2.2 254.88-2.2L254.88-2.2Q258.43-2.2 261.13-3.55 263.83-4.9 265.38-7.28 266.93-9.65 266.93-12.75L266.93-12.75 266.93-37.55Q266.93-38.25 267.36-38.65 267.78-39.05 268.43-39.05L268.43-39.05Q269.13-39.05 269.53-38.65 269.93-38.25 269.93-37.55L269.93-37.55 269.93-12.75Q269.93-8.8 268.01-5.73 266.08-2.65 262.68-0.93 259.28 0.8 254.88 0.8ZM275.88 0L275.88 0Q274.93 0 274.55-0.75 274.18-1.5 274.53-2.15L274.53-2.15 289.68-38Q290.08-39.05 291.13-39.05L291.13-39.05Q292.13-39.05 292.58-38L292.58-38 307.78-2.15Q308.18-1.45 307.73-0.73 307.28 0 306.43 0L306.43 0Q305.93 0 305.6-0.23 305.28-0.45 305.03-0.95L305.03-0.95 290.33-36 291.93-36 277.28-0.95Q277.08-0.45 276.73-0.23 276.38 0 275.88 0ZM302.73-9.8L279.58-9.8 280.78-12.5 301.58-12.5 302.73-9.8Z" opacity="1" transform="matrix(1,0,0,1,0,0)" fill="#ffffff" class="wordmark-text-0" data-fill-palette-color="primary" id="text-0"></path></svg></g></svg></g><g transform="matrix(1,0,0,1,2.5,65.37560030670159)"><svg viewBox="0 0 390.52 26.029266403927263" height="26.029266403927263" width="390.52"><g transform="matrix(1,0,0,1,0,0)"><svg width="390.52" viewBox="0.4500000000000002 -36.2 724.0799999999999 49.2" height="26.029266403927263" data-palette-color="#ffffff"><path d="M10.8-12L10.8-12 6.2-12 6.2 0 3.45 0 3.45-32.75 10.8-32.75Q16.8-32.75 19.68-30.48 22.55-28.2 22.55-22.6 22.55-17 19.65-14.5 16.75-12 10.8-12ZM10.8-30.25L10.8-30.25 6.2-30.25 6.2-14.5 10.8-14.5Q15.4-14.5 17.53-16.35 19.65-18.2 19.65-22.55 19.65-26.9 17.55-28.58 15.45-30.25 10.8-30.25ZM35.9-2.15L35.9-2.15Q37.75-2.15 39.92-3.33 42.1-4.5 43.1-5.5L43.1-5.5 43.1-11.45Q39.8-11.7 36.8-11.7 33.8-11.7 32.3-10.43 30.8-9.15 30.8-7L30.8-7Q30.8-2.15 35.9-2.15ZM35.85 0.45L35.85 0.45Q32.2 0.45 30.1-1.43 28-3.3 28-6.75 28-10.2 30.3-12.1L30.3-12.1Q32.6-14.05 36.4-14.05 40.2-14.05 43.1-13.75L43.1-13.75Q43.1-18.2 42-19.83 40.9-21.45 37.55-21.45 34.2-21.45 29.65-19.85L29.65-19.85 28.9-22.35Q33.55-24.05 37.3-24.05L37.3-24.05Q42.25-24.05 44-21.85 45.75-19.65 45.75-14.15L45.75-14.15 45.75-3.65 46.15 0.15 43.6 0.4 43.1-2.6Q41.95-1.6 39.85-0.58 37.75 0.45 35.85 0.45ZM53.9-1.15L53.9-1.15 54.55-3.75Q59.5-2.1 62.2-2.1 64.9-2.1 66.37-3.28 67.84-4.45 67.84-6.4 67.84-8.35 66.67-9.28 65.5-10.2 61.8-11.05 58.1-11.9 56.25-13.5L56.25-13.5Q54.4-15 54.4-18 54.4-21 56.67-22.58 58.95-24.15 62.55-24.15 66.15-24.15 70.34-22.55L70.34-22.55 69.65-20.2Q65.4-21.6 62.8-21.6 60.2-21.6 58.7-20.7L58.7-20.7Q57.2-19.7 57.2-18 57.2-16.3 58.52-15.35 59.85-14.4 63.65-13.45 67.45-12.5 69.05-11.03 70.65-9.55 70.65-6.4 70.65-3.25 68.5-1.4L68.5-1.4Q66.4 0.45 62.5 0.45 58.6 0.45 53.9-1.15ZM78.89-1.15L78.89-1.15 79.54-3.75Q84.49-2.1 87.19-2.1 89.89-2.1 91.37-3.28 92.84-4.45 92.84-6.4 92.84-8.35 91.67-9.28 90.49-10.2 86.79-11.05 83.09-11.9 81.24-13.5L81.24-13.5Q79.39-15 79.39-18 79.39-21 81.67-22.58 83.94-24.15 87.54-24.15 91.14-24.15 95.34-22.55L95.34-22.55 94.64-20.2Q90.39-21.6 87.79-21.6 85.19-21.6 83.69-20.7L83.69-20.7Q82.19-19.7 82.19-18 82.19-16.3 83.52-15.35 84.84-14.4 88.64-13.45 92.44-12.5 94.04-11.03 95.64-9.55 95.64-6.4 95.64-3.25 93.49-1.4L93.49-1.4Q91.39 0.45 87.49 0.45 83.59 0.45 78.89-1.15ZM111.94-21.25L106.14-21.25 106.14-23.75 114.59-23.75 114.59-2.5 120.39-2.5 120.39 0 105.74 0 105.74-2.5 111.94-2.5 111.94-21.25ZM113.04-28.55Q112.14-28.55 111.52-29.18 110.89-29.8 110.89-30.78 110.89-31.75 111.52-32.33 112.14-32.9 113.04-32.9 113.94-32.9 114.52-32.35 115.09-31.8 115.09-30.8 115.09-29.8 114.52-29.18 113.94-28.55 113.04-28.55ZM127.94-11.8Q127.94-24.05 137.49-24.05 147.04-24.05 147.04-11.8 147.04 0.45 137.49 0.45 127.94 0.45 127.94-11.8ZM137.49-21.45Q130.79-21.45 130.79-11.8 130.79-2.15 137.49-2.15 144.19-2.15 144.19-11.8 144.19-21.45 137.49-21.45ZM153.79-23.75L156.34-23.75 156.44-21.75Q161.29-24.05 164.49-24.05 167.69-24.05 169.51-21.85 171.34-19.65 171.34-15.85L171.34-15.85 171.34 0 168.69 0 168.69-15.85Q168.69-18.3 167.49-19.9L167.49-19.9Q166.29-21.45 163.89-21.45 161.49-21.45 156.44-19.25L156.44-19.25 156.44 0 153.79 0 153.79-23.75ZM185.88-2.15L185.88-2.15Q187.73-2.15 189.91-3.33 192.08-4.5 193.08-5.5L193.08-5.5 193.08-11.45Q189.78-11.7 186.78-11.7 183.78-11.7 182.28-10.43 180.78-9.15 180.78-7L180.78-7Q180.78-2.15 185.88-2.15ZM185.83 0.45L185.83 0.45Q182.18 0.45 180.08-1.43 177.98-3.3 177.98-6.75 177.98-10.2 180.28-12.1L180.28-12.1Q182.58-14.05 186.38-14.05 190.18-14.05 193.08-13.75L193.08-13.75Q193.08-18.2 191.98-19.83 190.88-21.45 187.53-21.45 184.18-21.45 179.63-19.85L179.63-19.85 178.88-22.35Q183.53-24.05 187.28-24.05L187.28-24.05Q192.23-24.05 193.98-21.85 195.73-19.65 195.73-14.15L195.73-14.15 195.73-3.65 196.13 0.15 193.58 0.4 193.08-2.6Q191.93-1.6 189.83-0.58 187.73 0.45 185.83 0.45ZM207.98-9.1L207.98-20.9 203.78-20.9 203.78-23.4 207.98-23.4 207.98-29.15 210.63-29.65 210.63-23.4 220.13-23.4 220.13-20.9 210.63-20.9 210.63-9.2Q210.63-5.3 211.41-3.7 212.18-2.1 214.58-2.1 216.98-2.1 219.88-3.05L219.88-3.05 220.48-0.55Q217.58 0.5 215.08 0.5 212.58 0.5 211.16-0.15 209.73-0.8 209.06-2.23 208.38-3.65 208.18-5.15 207.98-6.65 207.98-9.1L207.98-9.1ZM228.33-11.85Q228.33-17.6 230.7-20.83 233.08-24.05 237.63-24.05 242.18-24.05 244.4-21.05 246.63-18.05 246.63-13.05L246.63-13.05 246.48-10.55 231.18-10.55Q231.43-6.8 233.18-4.48 234.93-2.15 238-2.15 241.08-2.15 245.23-3.6L245.23-3.6 245.98-1.1Q241.93 0.45 238.38 0.45L238.38 0.45Q233.48 0.45 230.9-2.83 228.33-6.1 228.33-11.85ZM237.83-21.5L237.83-21.5Q231.53-21.5 231.18-13.05L231.18-13.05 243.78-13.05Q243.78-21.5 237.83-21.5ZM280.07 0L277.37 0 277.37-32.75 280.02-32.75 287.07-14.4 287.82-14.4 294.87-32.75 297.52-32.75 297.52 0 294.82 0 294.82-25.4 294.62-25.4 289.37-11.85 285.52-11.85 280.27-25.45 280.07-25.45 280.07 0ZM310.87-2.15L310.87-2.15Q312.72-2.15 314.9-3.33 317.07-4.5 318.07-5.5L318.07-5.5 318.07-11.45Q314.77-11.7 311.77-11.7 308.77-11.7 307.27-10.43 305.77-9.15 305.77-7L305.77-7Q305.77-2.15 310.87-2.15ZM310.82 0.45L310.82 0.45Q307.17 0.45 305.07-1.43 302.97-3.3 302.97-6.75 302.97-10.2 305.27-12.1L305.27-12.1Q307.57-14.05 311.37-14.05 315.17-14.05 318.07-13.75L318.07-13.75Q318.07-18.2 316.97-19.83 315.87-21.45 312.52-21.45 309.17-21.45 304.62-19.85L304.62-19.85 303.87-22.35Q308.52-24.05 312.27-24.05L312.27-24.05Q317.22-24.05 318.97-21.85 320.72-19.65 320.72-14.15L320.72-14.15 320.72-3.65 321.12 0.15 318.57 0.4 318.07-2.6Q316.92-1.6 314.82-0.58 312.72 0.45 310.82 0.45ZM345.62-16L342.92-16 342.92-20.95Q340.47-21.5 339.02-21.5L339.02-21.5Q335.42-21.5 333.64-18.95 331.87-16.4 331.87-11.9 331.87-7.4 333.67-4.78 335.47-2.15 339.02-2.15L339.02-2.15Q341.27-2.15 345.27-3.55L345.27-3.55 346.02-1.05Q342.07 0.45 339.07 0.45L339.07 0.45Q334.17 0.45 331.59-2.83 329.02-6.1 329.02-11.95 329.02-17.8 331.57-20.93 334.12-24.05 339.07-24.05L339.07-24.05Q342.37-24.05 345.62-23L345.62-23 345.62-16ZM356.52-19.4L356.52-19.4 356.52 0 353.87 0 353.87-33.2 356.52-33.2 356.52-21.95Q361.22-24.05 364.27-24.05L364.27-24.05Q371.42-24.05 371.42-15.85L371.42-15.85 371.42 0 368.77 0 368.77-15.85Q368.77-18.4 367.67-19.93 366.57-21.45 363.87-21.45 361.17-21.45 356.52-19.4ZM386.91-21.25L381.11-21.25 381.11-23.75 389.56-23.75 389.56-2.5 395.36-2.5 395.36 0 380.71 0 380.71-2.5 386.91-2.5 386.91-21.25ZM388.01-28.55Q387.11-28.55 386.49-29.18 385.86-29.8 385.86-30.78 385.86-31.75 386.49-32.33 387.11-32.9 388.01-32.9 388.91-32.9 389.49-32.35 390.06-31.8 390.06-30.8 390.06-29.8 389.49-29.18 388.91-28.55 388.01-28.55ZM403.76-23.75L406.31-23.75 406.41-21.75Q411.26-24.05 414.46-24.05 417.66-24.05 419.49-21.85 421.31-19.65 421.31-15.85L421.31-15.85 421.31 0 418.66 0 418.66-15.85Q418.66-18.3 417.46-19.9L417.46-19.9Q416.26-21.45 413.86-21.45 411.46-21.45 406.41-19.25L406.41-19.25 406.41 0 403.76 0 403.76-23.75ZM428.31-11.85Q428.31-17.6 430.68-20.83 433.06-24.05 437.61-24.05 442.16-24.05 444.38-21.05 446.61-18.05 446.61-13.05L446.61-13.05 446.46-10.55 431.16-10.55Q431.41-6.8 433.16-4.48 434.91-2.15 437.98-2.15 441.06-2.15 445.21-3.6L445.21-3.6 445.96-1.1Q441.91 0.45 438.36 0.45L438.36 0.45Q433.46 0.45 430.88-2.83 428.31-6.1 428.31-11.85ZM437.81-21.5L437.81-21.5Q431.51-21.5 431.16-13.05L431.16-13.05 443.76-13.05Q443.76-21.5 437.81-21.5ZM485.75-12L485.75-12 481.15-12 481.15 0 478.4 0 478.4-32.75 485.75-32.75Q491.75-32.75 494.63-30.48 497.5-28.2 497.5-22.6 497.5-17 494.6-14.5 491.7-12 485.75-12ZM485.75-30.25L485.75-30.25 481.15-30.25 481.15-14.5 485.75-14.5Q490.35-14.5 492.48-16.35 494.6-18.2 494.6-22.55 494.6-26.9 492.5-28.58 490.4-30.25 485.75-30.25ZM509.2-21.25L504.5-21.25 504.5-23.75 511.85-23.75 511.95-20.85Q513.55-21.85 516.45-22.85 519.35-23.85 521.55-24.05L521.55-24.05 521.55-21.1Q519.5-20.95 516.48-20.1 513.45-19.25 511.95-18.35L511.95-18.35 511.95-2.5 519.95-2.5 519.95 0 504.5 0 504.5-2.5 509.2-2.5 509.2-21.25ZM527.9-11.8Q527.9-24.05 537.45-24.05 547-24.05 547-11.8 547 0.45 537.45 0.45 527.9 0.45 527.9-11.8ZM537.45-21.45Q530.75-21.45 530.75-11.8 530.75-2.15 537.45-2.15 544.15-2.15 544.15-11.8 544.15-21.45 537.45-21.45ZM571.34-23.75L571.34-5.75 571.49 1.15Q571.49 5.6 568.82 7.8 566.14 10 562.19 10 558.24 10 553.19 8L553.19 8 554.09 5.5Q559.04 7.4 561.97 7.4 564.89 7.4 566.87 5.88 568.84 4.35 568.84 1.2L568.84 1.2Q568.84 0.8 568.77-0.58 568.69-1.95 568.69-2.6L568.69-2.6Q565.04-0.05 561.89-0.05L561.89-0.05Q557.39-0.05 554.97-3.13 552.54-6.2 552.54-11.88 552.54-17.55 555.24-20.8 557.94-24.05 562.74-24.05L562.74-24.05Q565.39-24.05 568.69-22.3L568.69-22.3 568.79-23.75 571.34-23.75ZM555.39-11.93Q555.39-7.55 557.09-5.1 558.79-2.65 562.04-2.65 565.29-2.65 568.69-5.5L568.69-5.5 568.69-19.5Q565.59-21.45 562.84-21.45L562.84-21.45Q559.29-21.45 557.34-18.88 555.39-16.3 555.39-11.93ZM584.19-21.25L579.49-21.25 579.49-23.75 586.84-23.75 586.94-20.85Q588.54-21.85 591.44-22.85 594.34-23.85 596.54-24.05L596.54-24.05 596.54-21.1Q594.49-20.95 591.47-20.1 588.44-19.25 586.94-18.35L586.94-18.35 586.94-2.5 594.94-2.5 594.94 0 579.49 0 579.49-2.5 584.19-2.5 584.19-21.25ZM610.84-2.15L610.84-2.15Q612.69-2.15 614.86-3.33 617.04-4.5 618.04-5.5L618.04-5.5 618.04-11.45Q614.74-11.7 611.74-11.7 608.74-11.7 607.24-10.43 605.74-9.15 605.74-7L605.74-7Q605.74-2.15 610.84-2.15ZM610.79 0.45L610.79 0.45Q607.14 0.45 605.04-1.43 602.94-3.3 602.94-6.75 602.94-10.2 605.24-12.1L605.24-12.1Q607.54-14.05 611.34-14.05 615.14-14.05 618.04-13.75L618.04-13.75Q618.04-18.2 616.94-19.83 615.84-21.45 612.49-21.45 609.14-21.45 604.59-19.85L604.59-19.85 603.84-22.35Q608.49-24.05 612.24-24.05L612.24-24.05Q617.19-24.05 618.94-21.85 620.69-19.65 620.69-14.15L620.69-14.15 620.69-3.65 621.09 0.15 618.54 0.4 618.04-2.6Q616.89-1.6 614.79-0.58 612.69 0.45 610.79 0.45ZM626.69-23.75L629.19-23.75 629.34-22.25Q631.84-24.05 633.19-24.05L633.19-24.05Q636.49-24.05 637.74-21.9L637.74-21.9Q640.54-24.05 642.64-24.05L642.64-24.05Q645.89-24.05 647.09-22.05 648.29-20.05 648.29-15.9L648.29-15.9 648.29 0 645.64 0 645.64-15.9Q645.64-18.75 645.04-20.13 644.44-21.5 642.74-21.5 641.04-21.5 638.54-19.9L638.54-19.9Q638.84-18.2 638.84-15.9L638.84-15.9 638.84-7.6 636.19-7.6 636.19-15.9Q636.19-18.75 635.59-20.1L635.59-20.1Q634.94-21.5 633.24-21.5 631.54-21.5 629.34-19.9L629.34-19.9 629.34 0 626.69 0 626.69-23.75ZM651.68-23.75L654.18-23.75 654.33-22.25Q656.83-24.05 658.18-24.05L658.18-24.05Q661.48-24.05 662.73-21.9L662.73-21.9Q665.53-24.05 667.63-24.05L667.63-24.05Q670.88-24.05 672.08-22.05 673.28-20.05 673.28-15.9L673.28-15.9 673.28 0 670.63 0 670.63-15.9Q670.63-18.75 670.03-20.13 669.43-21.5 667.73-21.5 666.03-21.5 663.53-19.9L663.53-19.9Q663.83-18.2 663.83-15.9L663.83-15.9 663.83-7.6 661.18-7.6 661.18-15.9Q661.18-18.75 660.58-20.1L660.58-20.1Q659.93-21.5 658.23-21.5 656.53-21.5 654.33-19.9L654.33-19.9 654.33 0 651.68 0 651.68-23.75ZM678.28-11.85Q678.28-17.6 680.66-20.83 683.03-24.05 687.58-24.05 692.13-24.05 694.36-21.05 696.58-18.05 696.58-13.05L696.58-13.05 696.43-10.55 681.13-10.55Q681.38-6.8 683.13-4.48 684.88-2.15 687.96-2.15 691.03-2.15 695.18-3.6L695.18-3.6 695.93-1.1Q691.88 0.45 688.33 0.45L688.33 0.45Q683.43 0.45 680.86-2.83 678.28-6.1 678.28-11.85ZM687.78-21.5L687.78-21.5Q681.48-21.5 681.13-13.05L681.13-13.05 693.73-13.05Q693.73-21.5 687.78-21.5ZM709.18-21.25L704.48-21.25 704.48-23.75 711.83-23.75 711.93-20.85Q713.53-21.85 716.43-22.85 719.33-23.85 721.53-24.05L721.53-24.05 721.53-21.1Q719.48-20.95 716.45-20.1 713.43-19.25 711.93-18.35L711.93-18.35 711.93-2.5 719.93-2.5 719.93 0 704.48 0 704.48-2.5 709.18-2.5 709.18-21.25Z" opacity="1" transform="matrix(1,0,0,1,0,0)" fill="#ffffff" class="slogan-text-1" data-fill-palette-color="secondary" id="text-1"></path></svg></g></svg></g></svg></g></svg></g><g></g></svg></g></svg></g></svg></g></svg></g><defs></defs></svg><rect width="395.52" height="247.2" fill="none" stroke="none" visibility="hidden"></rect></g></svg></g></svg>