<svg xmlns="http://www.w3.org/2000/svg" version="1.1" xmlns:xlink="http://www.w3.org/1999/xlink" xmlns:svgjs="http://svgjs.dev/svgjs" width="1000" height="1000" viewBox="0 0 1000 1000"><rect width="1000" height="1000" fill="#000000"></rect><g transform="matrix(0.7,0,0,0.7,149.57575757575756,282.1265587044535)"><svg viewBox="0 0 396 247" data-background-color="#ffffff" preserveAspectRatio="xMidYMid meet" height="623" width="1000" xmlns="http://www.w3.org/2000/svg" xmlns:xlink="http://www.w3.org/1999/xlink"><g id="tight-bounds" transform="matrix(1,0,0,1,0.2400000000000091,-0.09999999999999432)"><svg viewBox="0 0 395.52 247.2" height="247.2" width="395.52"><g><svg></svg></g><g><svg viewBox="0 0 395.52 247.2" height="247.2" width="395.52"><g transform="matrix(1,0,0,1,75.54432,93.49045863016508)"><svg viewBox="0 0 244.43135999999998 60.219082739669815" height="60.219082739669815" width="244.43135999999998"><g><svg viewBox="0 0 244.43135999999998 60.219082739669815" height="60.219082739669815" width="244.43135999999998"><g><svg viewBox="0 0 244.43135999999998 60.219082739669815" height="60.219082739669815" width="244.43135999999998"><g><svg viewBox="0 0 244.43135999999998 60.219082739669815" height="60.219082739669815" width="244.43135999999998"><g id="textblocktransform"><svg viewBox="0 0 244.43135999999998 60.219082739669815" height="60.219082739669815" width="244.43135999999998" id="textblock"><g><svg viewBox="0 0 244.43135999999998 35.288011556591094" height="35.288011556591094" width="244.43135999999998"><g transform="matrix(1,0,0,1,0,0)"><svg width="244.43135999999998" viewBox="2.1500000953674316 -38.22999954223633 272.4100036621094 39.32999801635742" height="35.288011556591094" data-palette-color="#010c80"><path d="M32.32-5.79L32.32-5.79Q33.33-5.79 33.33-4.66L33.33-4.66Q33.33-3.74 31.91-2.81L31.91-2.81Q29.27-1.07 27.47-0.54L27.47-0.54Q24.07 0.46 20.34 0.46 16.6 0.46 13.15-0.87 9.69-2.2 7.25-4.59L7.25-4.59Q2.15-9.62 2.15-17.58L2.15-17.58Q2.15-21.41 3.59-24.62 5.03-27.83 7.57-30.13L7.57-30.13Q12.94-34.99 21.07-34.99L21.07-34.99Q25.63-34.99 29.1-33.42L29.1-33.42Q32.79-31.79 32.79-30.64L32.79-30.64Q32.79-30.18 32.48-29.83 32.18-29.49 31.79-29.49L31.79-29.49Q31.01-29.49 30.37-30.19 29.74-30.88 28.65-31.45 27.56-32.01 26.27-32.42L26.27-32.42Q23.63-33.23 21.47-33.23 19.31-33.23 17.9-32.93L17.9-32.93 17.9-1.64Q19.6-1.34 20.92-1.34 22.24-1.34 23.61-1.51 24.98-1.68 26.29-2.08L26.29-2.08Q29.25-2.95 30.74-4.66L30.74-4.66Q31.27-5.3 31.59-5.54 31.91-5.79 32.32-5.79ZM55.61 0L55.61-1.61Q52.49 0.46 48.68 0.46L48.68 0.46Q43.63 0.46 40.57-2.08L40.57-2.08Q37.4-4.69 37.4-9.33L37.4-9.33Q37.4-13.43 40.55-16.06L40.55-16.06Q43.77-18.73 49.02-18.73L49.02-18.73Q52.54-18.73 55.61-17.38L55.61-17.38 55.61-24.1Q53.39-24.73 51.69-24.73 50-24.73 48.83-24.58 47.65-24.44 46.6-24.15L46.6-24.15Q44.33-23.51 43.16-22.44L43.16-22.44Q42.48-21.8 41.92-21.8 41.35-21.8 41.06-22.08 40.77-22.36 40.77-22.71 40.77-23.05 40.89-23.33 41.01-23.61 41.35-23.9L41.35-23.9Q42.09-24.54 43.8-25.17L43.8-25.17Q47.34-26.51 50.9-26.51L50.9-26.51Q61.74-26.51 64.74-21.34L64.74-21.34Q66.06-19.04 66.06-15.31L66.06-15.31 66.06 0 55.61 0ZM55.61-3.71L55.61-15.48Q52.54-16.97 49.48-16.97L49.48-16.97Q49-16.97 48.56-16.89L48.56-16.89 48.56-1.37Q48.68-1.34 48.83-1.34 48.97-1.34 49.12-1.34L49.12-1.34Q52.46-1.34 55.61-3.71L55.61-3.71ZM73.7 0L73.7-34.55 84.2-34.55 84.2 0 73.7 0ZM101.46 1.1L88.05-26.07 99.11-26.07 105.75-12.38 109.93-20.68Q111.22-23.34 111.55-24.63 111.88-25.93 112.21-26.22 112.54-26.51 113.02-26.51 113.49-26.51 113.76-26.2 114.03-25.88 114.03-25.56 114.03-25.24 113.97-24.93 113.91-24.61 113.74-24.07L113.74-24.07Q113.37-23.07 112.2-20.61L112.2-20.61 101.46 1.1ZM123.4-30.35Q120.89-30.35 119.47-31.47 118.06-32.59 118.06-34.42L118.06-34.42Q118.06-35.96 119.62-37.06L119.62-37.06Q121.28-38.23 123.13-38.23 124.99-38.23 126-37.87 127.02-37.5 127.72-36.91L127.72-36.91Q129.14-35.72 129.14-34.13L129.14-34.13Q129.14-32.54 127.53-31.45L127.53-31.45Q125.92-30.35 123.4-30.35ZM118.28 0L118.28-26.07 128.77-26.07 128.77 0 118.28 0ZM154.82 0L154.82-23.41Q154.21-23.8 153.5-23.8 152.8-23.8 152.04-23.47 151.28-23.14 150.45-22.56L150.45-22.56Q148.72-21.31 147.25-19.24L147.25-19.24 147.25 0 136.76 0 136.76-26.07 147.25-26.07 147.25-21.9Q151.43-26.51 156.7-26.51L156.7-26.51Q165.32-26.51 165.32-18.16L165.32-18.16 165.32 0 154.82 0ZM205.45-2.22L205.45-2.22Q206.75-2.22 206.75-1.12L206.75-1.12Q206.75-0.68 206.22-0.34 205.7 0 204.35 0L204.35 0 184.53 0 184.53-34.55 196.98-34.55 196.98-1.61 201.55-1.61Q203.08-1.61 204.19-1.92 205.3-2.22 205.45-2.22ZM219.85 0.46L219.85 0.46Q211.28 0.46 211.28-7.91L211.28-7.91 211.28-26.07 221.73-26.07 221.73-2.17Q221.98-2.05 222.34-2.05L222.34-2.05 223.15-2.05Q225.1-2.05 227.79-4.69L227.79-4.69Q228.59-5.49 229.3-6.45L229.3-6.45 229.3-26.07 239.8-26.07 239.8 0 229.3 0 229.3-3.76Q225.32 0.46 219.85 0.46ZM264.11 0L264.11-1.61Q260.99 0.46 257.18 0.46L257.18 0.46Q252.13 0.46 249.07-2.08L249.07-2.08Q245.9-4.69 245.9-9.33L245.9-9.33Q245.9-13.43 249.05-16.06L249.05-16.06Q252.27-18.73 257.52-18.73L257.52-18.73Q261.04-18.73 264.11-17.38L264.11-17.38 264.11-24.1Q261.89-24.73 260.19-24.73 258.5-24.73 257.33-24.58 256.15-24.44 255.1-24.15L255.1-24.15Q252.83-23.51 251.66-22.44L251.66-22.44Q250.98-21.8 250.42-21.8 249.86-21.8 249.56-22.08 249.27-22.36 249.27-22.71 249.27-23.05 249.39-23.33 249.51-23.61 249.86-23.9L249.86-23.9Q250.59-24.54 252.3-25.17L252.3-25.17Q255.84-26.51 259.4-26.51L259.4-26.51Q270.24-26.51 273.24-21.34L273.24-21.34Q274.56-19.04 274.56-15.31L274.56-15.31 274.56 0 264.11 0ZM264.11-3.71L264.11-15.48Q261.04-16.97 257.99-16.97L257.99-16.97Q257.5-16.97 257.06-16.89L257.06-16.89 257.06-1.37Q257.18-1.34 257.33-1.34 257.47-1.34 257.62-1.34L257.62-1.34Q260.96-1.34 264.11-3.71L264.11-3.71Z" opacity="1" transform="matrix(1,0,0,1,0,0)" fill="#ffffff" class="wordmark-text-0" data-fill-palette-color="primary" id="text-0"></path></svg></g></svg></g><g transform="matrix(1,0,0,1,0,43.61866417282489)"><svg viewBox="0 0 244.43135999999998 16.60041856684492" height="16.60041856684492" width="244.43135999999998"><g transform="matrix(1,0,0,1,0,0)"><svg width="244.43135999999998" viewBox="2.200000047683716 -33.25 654.4299926757812 44.45000076293945" height="16.60041856684492" data-palette-color="#77d4fc"><path d="M2.2-32.5L2.2-33 9.3-33Q14.85-33 17.73-30.88 20.6-28.75 20.6-24.85L20.6-24.85Q20.6-22.75 19.6-21.1 18.6-19.45 16.98-18.32 15.35-17.2 13.33-16.6 11.3-16 9.3-16L9.3-16 7.4-16 7.4-3.25Q7.4-2.85 7.5-2.38 7.6-1.9 7.83-1.5 8.05-1.1 8.33-0.8 8.6-0.5 9-0.5L9-0.5 9.25-0.5 9.25 0 2.2 0 2.2-0.5 2.45-0.5Q2.8-0.5 3.1-0.8 3.4-1.1 3.6-1.5 3.8-1.9 3.9-2.38 4-2.85 4-3.25L4-3.25 4-29.9Q4-30.6 3.6-31.5 3.2-32.4 2.45-32.5L2.45-32.5 2.2-32.5ZM8.1-31.25L7.4-31.25 7.4-17.75 8.9-17.75Q10.9-17.75 12.48-18.3 14.05-18.85 15.1-19.75 16.15-20.65 16.7-21.8 17.25-22.95 17.25-24.15L17.25-24.15Q17.25-25.6 16.78-26.88 16.3-28.15 15.23-29.13 14.15-30.1 12.4-30.68 10.65-31.25 8.1-31.25L8.1-31.25ZM39.35 0L34.5 0 34.5-2.55 34.25-2.3Q33-1.05 31.37-0.35 29.75 0.35 27.45 0.35L27.45 0.35Q25.7 0.35 24.45-0.05 23.2-0.45 22.4-1.18 21.6-1.9 21.22-2.85 20.85-3.8 20.85-4.85L20.85-4.85Q20.85-6.55 21.77-7.85 22.7-9.15 24.45-10.15 26.2-11.15 28.72-11.98 31.25-12.8 34.5-13.6L34.5-13.6Q34.4-15.55 33.7-16.75 33-17.95 32.05-18.63 31.1-19.3 30.05-19.53 29-19.75 28.25-19.75L28.25-19.75Q26.95-19.75 25.97-19.35 25-18.95 24.27-18.32 23.55-17.7 23.05-16.98 22.55-16.25 22.25-15.6L22.25-15.6 21.8-15.6 21.8-19.25Q22.2-19.3 22.55-19.5 22.9-19.7 23.4-19.9L23.4-19.9Q24.15-20.2 25.45-20.78 26.75-21.35 29.1-21.35L29.1-21.35Q31.85-21.35 33.55-20.65 35.25-19.95 36.17-18.8 37.1-17.65 37.4-16.18 37.7-14.7 37.7-13.15L37.7-13.15 37.7-3.25Q37.7-2.25 38.15-1.38 38.6-0.5 39.35-0.5L39.35-0.5 39.35 0ZM33.95-4.15L34.5-4.75 34.5-11.9 34-11.8Q32.8-11.5 31.07-11 29.35-10.5 27.8-9.7 26.25-8.9 25.15-7.8 24.05-6.7 24.05-5.25L24.05-5.25Q24.05-3.65 25.35-2.6 26.65-1.55 28.75-1.55L28.75-1.55Q30.4-1.55 31.65-2.27 32.9-3 33.95-4.15L33.95-4.15ZM60.4-5.7L60.4-5.7Q60.4-4.4 59.75-3.3 59.09-2.2 57.97-1.38 56.85-0.55 55.35-0.08 53.85 0.4 52.1 0.4L52.1 0.4Q49.95 0.4 48.6-0.18 47.25-0.75 46.3-1.35L46.3-1.35Q45.65-1.75 45.1-2.02 44.55-2.3 43.9-2.3L43.9-2.3 43.9-6.1 44.4-6.1Q44.55-5.4 45.27-4.58 46-3.75 47.02-3.05 48.05-2.35 49.27-1.88 50.5-1.4 51.75-1.4L51.75-1.4Q52.65-1.4 53.6-1.6 54.55-1.8 55.32-2.25 56.1-2.7 56.62-3.38 57.15-4.05 57.15-5L57.15-5Q57.15-5.95 56.6-6.65 56.05-7.35 55.2-7.88 54.35-8.4 53.25-8.8 52.15-9.2 51.05-9.55L51.05-9.55Q49.75-9.95 48.42-10.45 47.1-10.95 46.05-11.63 45-12.3 44.35-13.28 43.7-14.25 43.7-15.6L43.7-15.6Q43.7-16.75 44.12-17.8 44.55-18.85 45.52-19.63 46.5-20.4 48.05-20.88 49.6-21.35 51.8-21.35L51.8-21.35Q53.75-21.35 54.82-21.03 55.9-20.7 56.6-20.35L56.6-20.35Q57.05-20.1 57.5-19.98 57.95-19.85 58.5-19.85L58.5-19.85 58.5-16.35 58.09-16.35Q57.2-18 55.35-18.85 53.5-19.7 51.55-19.7L51.55-19.7Q50.3-19.7 49.4-19.38 48.5-19.05 47.92-18.57 47.35-18.1 47.07-17.5 46.8-16.9 46.8-16.3L46.8-16.3Q46.8-15.45 47.27-14.85 47.75-14.25 48.57-13.8 49.4-13.35 50.42-12.95 51.45-12.55 52.6-12.2L52.6-12.2Q54-11.75 55.4-11.23 56.8-10.7 57.9-9.95 59-9.2 59.7-8.18 60.4-7.15 60.4-5.7ZM80.94-5.7L80.94-5.7Q80.94-4.4 80.29-3.3 79.64-2.2 78.52-1.38 77.39-0.55 75.89-0.08 74.39 0.4 72.64 0.4L72.64 0.4Q70.49 0.4 69.14-0.18 67.79-0.75 66.84-1.35L66.84-1.35Q66.19-1.75 65.64-2.02 65.09-2.3 64.44-2.3L64.44-2.3 64.44-6.1 64.94-6.1Q65.09-5.4 65.82-4.58 66.54-3.75 67.57-3.05 68.59-2.35 69.82-1.88 71.04-1.4 72.29-1.4L72.29-1.4Q73.19-1.4 74.14-1.6 75.09-1.8 75.87-2.25 76.64-2.7 77.17-3.38 77.69-4.05 77.69-5L77.69-5Q77.69-5.95 77.14-6.65 76.59-7.35 75.74-7.88 74.89-8.4 73.79-8.8 72.69-9.2 71.59-9.55L71.59-9.55Q70.29-9.95 68.97-10.45 67.64-10.95 66.59-11.63 65.54-12.3 64.89-13.28 64.24-14.25 64.24-15.6L64.24-15.6Q64.24-16.75 64.67-17.8 65.09-18.85 66.07-19.63 67.04-20.4 68.59-20.88 70.14-21.35 72.34-21.35L72.34-21.35Q74.29-21.35 75.37-21.03 76.44-20.7 77.14-20.35L77.14-20.35Q77.59-20.1 78.04-19.98 78.49-19.85 79.04-19.85L79.04-19.85 79.04-16.35 78.64-16.35Q77.74-18 75.89-18.85 74.04-19.7 72.09-19.7L72.09-19.7Q70.84-19.7 69.94-19.38 69.04-19.05 68.47-18.57 67.89-18.1 67.62-17.5 67.34-16.9 67.34-16.3L67.34-16.3Q67.34-15.45 67.82-14.85 68.29-14.25 69.12-13.8 69.94-13.35 70.97-12.95 71.99-12.55 73.14-12.2L73.14-12.2Q74.54-11.75 75.94-11.23 77.34-10.7 78.44-9.95 79.54-9.2 80.24-8.18 80.94-7.15 80.94-5.7ZM92.44 0L85.94 0 85.94-0.5Q86.34-0.5 86.64-0.8 86.94-1.1 87.14-1.5 87.34-1.9 87.44-2.38 87.54-2.85 87.54-3.25L87.54-3.25 87.54-17.1Q87.54-17.95 87.29-18.73 87.04-19.5 85.84-19.55L85.84-19.55 85.84-20 90.84-21.6 90.84-3.25Q90.84-2.85 90.94-2.38 91.04-1.9 91.24-1.5 91.44-1.1 91.74-0.8 92.04-0.5 92.44-0.5L92.44-0.5 92.44 0ZM86.19-26.4L86.19-26.4Q86.19-27.4 86.87-28.1 87.54-28.8 88.54-28.8L88.54-28.8Q89.54-28.8 90.24-28.1 90.94-27.4 90.94-26.4L90.94-26.4Q90.94-25.4 90.24-24.75 89.54-24.1 88.54-24.1L88.54-24.1Q87.54-24.1 86.87-24.75 86.19-25.4 86.19-26.4ZM108.29 0.35L108.29 0.35Q105.79 0.35 103.79-0.48 101.79-1.3 100.36-2.73 98.94-4.15 98.16-6.1 97.39-8.05 97.39-10.35L97.39-10.35Q97.39-12.8 98.24-14.83 99.09-16.85 100.59-18.3 102.09-19.75 104.14-20.55 106.19-21.35 108.59-21.35L108.59-21.35Q110.99-21.35 112.99-20.58 114.99-19.8 116.44-18.4 117.89-17 118.69-15.08 119.49-13.15 119.49-10.85L119.49-10.85Q119.49-8.7 118.76-6.68 118.04-4.65 116.61-3.1 115.19-1.55 113.11-0.6 111.04 0.35 108.29 0.35ZM107.99-19.7L107.99-19.7Q106.19-19.6 104.81-18.82 103.44-18.05 102.51-16.82 101.59-15.6 101.11-14.05 100.64-12.5 100.64-10.9L100.64-10.9Q100.64-9.05 101.21-7.33 101.79-5.6 102.86-4.25 103.94-2.9 105.44-2.1 106.94-1.3 108.79-1.3L108.79-1.3Q110.64-1.3 112.06-2.1 113.49-2.9 114.44-4.17 115.39-5.45 115.86-7.05 116.34-8.65 116.34-10.25L116.34-10.25Q116.34-11.9 115.84-13.58 115.34-15.25 114.29-16.63 113.24-18 111.66-18.85 110.09-19.7 107.99-19.7ZM144.04-12.9L144.04-3.25Q144.04-2.85 144.14-2.38 144.24-1.9 144.46-1.5 144.69-1.1 144.96-0.8 145.24-0.5 145.64-0.5L145.64-0.5 145.64 0 139.19 0 139.19-0.5Q139.54-0.5 139.84-0.8 140.14-1.1 140.36-1.5 140.59-1.9 140.69-2.38 140.79-2.85 140.79-3.25L140.79-3.25 140.79-12.55Q140.79-14.35 140.29-15.7 139.79-17.05 138.94-17.95 138.09-18.85 137.01-19.28 135.94-19.7 134.84-19.7L134.84-19.7Q133.74-19.7 132.66-19.25 131.59-18.8 130.76-18.07 129.94-17.35 129.41-16.38 128.89-15.4 128.89-14.35L128.89-14.35 128.89-3.25Q128.89-2.85 128.99-2.38 129.09-1.9 129.31-1.5 129.54-1.1 129.81-0.8 130.09-0.5 130.49-0.5L130.49-0.5 130.49 0 123.99 0 123.99-0.5Q124.34-0.5 124.64-0.8 124.94-1.1 125.16-1.5 125.39-1.9 125.49-2.38 125.59-2.85 125.59-3.25L125.59-3.25 125.59-17.05Q125.59-17.9 125.34-18.68 125.09-19.45 123.89-19.5L123.89-19.5 123.89-19.95 128.89-21.55 128.89-18.8Q129.24-19.2 129.79-19.68 130.34-20.15 131.11-20.58 131.89-21 132.91-21.28 133.94-21.55 135.34-21.55L135.34-21.55Q137.69-21.55 139.34-20.75 140.99-19.95 142.04-18.68 143.09-17.4 143.56-15.88 144.04-14.35 144.04-12.9L144.04-12.9ZM168.58 0L163.73 0 163.73-2.55 163.48-2.3Q162.23-1.05 160.61-0.35 158.98 0.35 156.68 0.35L156.68 0.35Q154.93 0.35 153.68-0.05 152.43-0.45 151.63-1.18 150.83-1.9 150.46-2.85 150.08-3.8 150.08-4.85L150.08-4.85Q150.08-6.55 151.01-7.85 151.93-9.15 153.68-10.15 155.43-11.15 157.96-11.98 160.48-12.8 163.73-13.6L163.73-13.6Q163.63-15.55 162.93-16.75 162.23-17.95 161.28-18.63 160.33-19.3 159.28-19.53 158.23-19.75 157.48-19.75L157.48-19.75Q156.18-19.75 155.21-19.35 154.23-18.95 153.51-18.32 152.78-17.7 152.28-16.98 151.78-16.25 151.48-15.6L151.48-15.6 151.03-15.6 151.03-19.25Q151.43-19.3 151.78-19.5 152.13-19.7 152.63-19.9L152.63-19.9Q153.38-20.2 154.68-20.78 155.98-21.35 158.33-21.35L158.33-21.35Q161.08-21.35 162.78-20.65 164.48-19.95 165.41-18.8 166.33-17.65 166.63-16.18 166.93-14.7 166.93-13.15L166.93-13.15 166.93-3.25Q166.93-2.25 167.38-1.38 167.83-0.5 168.58-0.5L168.58-0.5 168.58 0ZM163.18-4.15L163.73-4.75 163.73-11.9 163.23-11.8Q162.03-11.5 160.31-11 158.58-10.5 157.03-9.7 155.48-8.9 154.38-7.8 153.28-6.7 153.28-5.25L153.28-5.25Q153.28-3.65 154.58-2.6 155.88-1.55 157.98-1.55L157.98-1.55Q159.63-1.55 160.88-2.27 162.13-3 163.18-4.15L163.18-4.15ZM183.88-19.3L178.28-19.3 178.28-7.25Q178.28-5.95 178.33-4.9 178.38-3.85 178.58-3.15 178.78-2.45 179.18-2.08 179.58-1.7 180.28-1.7L180.28-1.7Q181.33-1.7 182.26-2.7 183.18-3.7 183.43-5.1L183.43-5.1 183.88-5.1 183.88-1.45Q183.43-1.45 183.13-1.15L183.13-1.15Q182.73-0.8 182.01-0.4 181.28 0 179.83 0L179.83 0Q178.03 0 177.03-0.7 176.03-1.4 175.58-2.55 175.13-3.7 175.06-5.1 174.98-6.5 174.98-7.95L174.98-7.95 174.98-19.3 172.18-19.3 172.18-21 174.98-21 174.98-25.45Q174.98-26.3 174.76-27.03 174.53-27.75 173.28-27.8L173.28-27.8 173.28-28.3 178.28-29.9 178.28-21 183.88-21 183.88-19.3ZM207.73-10.1L190.38-10.1Q190.58-8.35 191.23-6.78 191.88-5.2 192.95-4 194.03-2.8 195.58-2.08 197.13-1.35 199.18-1.35L199.18-1.35Q200.28-1.35 201.5-1.68 202.73-2 203.78-2.6 204.83-3.2 205.65-4.08 206.48-4.95 206.78-6.05L206.78-6.05 207.23-6.05 207.23-2.3Q206.93-2.3 206.55-2.1 206.18-1.9 205.68-1.6L205.68-1.6Q204.68-1 202.98-0.33 201.28 0.35 198.48 0.35L198.48 0.35Q196.23 0.35 194.2-0.3 192.18-0.95 190.63-2.3 189.08-3.65 188.15-5.75 187.23-7.85 187.23-10.75L187.23-10.75Q187.23-12.6 187.85-14.5 188.48-16.4 189.75-17.93 191.03-19.45 193.03-20.4 195.03-21.35 197.83-21.35L197.83-21.35Q200.33-21.35 202.2-20.5 204.08-19.65 205.3-18.15 206.53-16.65 207.13-14.6 207.73-12.55 207.73-10.1L207.73-10.1ZM197.63-19.7L197.63-19.7Q195.88-19.7 194.6-19 193.33-18.3 192.43-17.2 191.53-16.1 191.03-14.7 190.53-13.3 190.38-11.9L190.38-11.9 204.63-11.9Q204.58-13.35 204.1-14.75 203.63-16.15 202.78-17.25 201.93-18.35 200.63-19.03 199.33-19.7 197.63-19.7ZM251.77 0L251.77-0.5 252.02-0.5Q252.37-0.5 252.67-0.8 252.97-1.1 253.2-1.5 253.42-1.9 253.52-2.38 253.62-2.85 253.62-3.25L253.62-3.25 253.62-29.55 240.72 0.55 228.47-28 228.47-3.25Q228.47-2.85 228.57-2.38 228.67-1.9 228.9-1.5 229.12-1.1 229.42-0.8 229.72-0.5 230.12-0.5L230.12-0.5 230.37-0.5 230.37 0 224.92 0 224.92-0.5 225.17-0.5Q225.52-0.5 225.82-0.8 226.12-1.1 226.32-1.5 226.52-1.9 226.62-2.38 226.72-2.85 226.72-3.25L226.72-3.25 226.72-29.9Q226.72-30.25 226.62-30.7 226.52-31.15 226.32-31.55 226.12-31.95 225.82-32.23 225.52-32.5 225.17-32.5L225.17-32.5 224.92-32.5 224.92-33 230.02-33 241.62-5.65 253.22-33 258.87-33 258.87-32.5 258.62-32.5Q258.22-32.5 257.92-32.23 257.62-31.95 257.4-31.55 257.17-31.15 257.07-30.7 256.97-30.25 256.97-29.9L256.97-29.9 256.97-3.25Q256.97-2.85 257.07-2.38 257.17-1.9 257.4-1.5 257.62-1.1 257.92-0.8 258.22-0.5 258.62-0.5L258.62-0.5 258.87-0.5 258.87 0 251.77 0ZM281.77 0L276.92 0 276.92-2.55 276.67-2.3Q275.42-1.05 273.8-0.35 272.17 0.35 269.87 0.35L269.87 0.35Q268.12 0.35 266.87-0.05 265.62-0.45 264.82-1.18 264.02-1.9 263.65-2.85 263.27-3.8 263.27-4.85L263.27-4.85Q263.27-6.55 264.2-7.85 265.12-9.15 266.87-10.15 268.62-11.15 271.15-11.98 273.67-12.8 276.92-13.6L276.92-13.6Q276.82-15.55 276.12-16.75 275.42-17.95 274.47-18.63 273.52-19.3 272.47-19.53 271.42-19.75 270.67-19.75L270.67-19.75Q269.37-19.75 268.4-19.35 267.42-18.95 266.7-18.32 265.97-17.7 265.47-16.98 264.97-16.25 264.67-15.6L264.67-15.6 264.22-15.6 264.22-19.25Q264.62-19.3 264.97-19.5 265.32-19.7 265.82-19.9L265.82-19.9Q266.57-20.2 267.87-20.78 269.17-21.35 271.52-21.35L271.52-21.35Q274.27-21.35 275.97-20.65 277.67-19.95 278.6-18.8 279.52-17.65 279.82-16.18 280.12-14.7 280.12-13.15L280.12-13.15 280.12-3.25Q280.12-2.25 280.57-1.38 281.02-0.5 281.77-0.5L281.77-0.5 281.77 0ZM276.37-4.15L276.92-4.75 276.92-11.9 276.42-11.8Q275.22-11.5 273.5-11 271.77-10.5 270.22-9.7 268.67-8.9 267.57-7.8 266.47-6.7 266.47-5.25L266.47-5.25Q266.47-3.65 267.77-2.6 269.07-1.55 271.17-1.55L271.17-1.55Q272.82-1.55 274.07-2.27 275.32-3 276.37-4.15L276.37-4.15ZM305.02-5.7L305.02-1.8Q304.62-1.8 304.27-1.63 303.92-1.45 303.47-1.2L303.47-1.2Q302.62-0.7 301.32-0.18 300.02 0.35 297.92 0.35L297.92 0.35Q295.37 0.35 293.19-0.48 291.02-1.3 289.44-2.78 287.87-4.25 286.99-6.23 286.12-8.2 286.12-10.5L286.12-10.5Q286.12-12.65 286.89-14.6 287.67-16.55 289.12-18.05 290.57-19.55 292.69-20.45 294.82-21.35 297.52-21.35L297.52-21.35Q299.37-21.35 300.52-20.93 301.67-20.5 302.47-20.1L302.47-20.1Q302.92-19.85 303.34-19.7 303.77-19.55 304.22-19.55L304.22-19.55 304.22-15.75 303.72-15.75Q303.47-16.7 302.82-17.43 302.17-18.15 301.32-18.65 300.47-19.15 299.47-19.4 298.47-19.65 297.52-19.65L297.52-19.65Q295.47-19.65 293.92-18.93 292.37-18.2 291.37-17.03 290.37-15.85 289.87-14.35 289.37-12.85 289.37-11.25L289.37-11.25Q289.37-9.4 289.97-7.63 290.57-5.85 291.69-4.45 292.82-3.05 294.42-2.2 296.02-1.35 298.02-1.35L298.02-1.35Q299.42-1.35 300.59-1.75 301.77-2.15 302.59-2.8 303.42-3.45 303.92-4.23 304.42-5 304.52-5.7L304.52-5.7 305.02-5.7ZM328.47-12.9L328.47-3.25Q328.47-2.85 328.57-2.38 328.67-1.9 328.89-1.5 329.12-1.1 329.39-0.8 329.67-0.5 330.07-0.5L330.07-0.5 330.07 0 323.62 0 323.62-0.5Q323.97-0.5 324.27-0.8 324.57-1.1 324.79-1.5 325.02-1.9 325.12-2.38 325.22-2.85 325.22-3.25L325.22-3.25 325.22-12.55Q325.22-14.35 324.72-15.7 324.22-17.05 323.37-17.95 322.52-18.85 321.44-19.28 320.37-19.7 319.27-19.7L319.27-19.7Q318.17-19.7 317.09-19.28 316.02-18.85 315.19-18.1 314.37-17.35 313.84-16.28 313.32-15.2 313.32-13.9L313.32-13.9 313.32-3.25Q313.32-2.85 313.42-2.38 313.52-1.9 313.74-1.5 313.97-1.1 314.24-0.8 314.52-0.5 314.92-0.5L314.92-0.5 314.92 0 308.42 0 308.42-0.5Q308.77-0.5 309.07-0.8 309.37-1.1 309.59-1.5 309.82-1.9 309.92-2.38 310.02-2.85 310.02-3.25L310.02-3.25 310.02-28.8Q310.02-29.65 309.77-30.4 309.52-31.15 308.32-31.2L308.32-31.2 308.32-31.7 313.32-33.25 313.32-18.8Q313.67-19.2 314.22-19.68 314.77-20.15 315.54-20.58 316.32-21 317.34-21.28 318.37-21.55 319.77-21.55L319.77-21.55Q322.12-21.55 323.77-20.75 325.42-19.95 326.47-18.68 327.52-17.4 327.99-15.88 328.47-14.35 328.47-12.9L328.47-12.9ZM342.16 0L335.66 0 335.66-0.5Q336.06-0.5 336.36-0.8 336.66-1.1 336.86-1.5 337.06-1.9 337.16-2.38 337.26-2.85 337.26-3.25L337.26-3.25 337.26-17.1Q337.26-17.95 337.01-18.73 336.76-19.5 335.56-19.55L335.56-19.55 335.56-20 340.56-21.6 340.56-3.25Q340.56-2.85 340.66-2.38 340.76-1.9 340.96-1.5 341.16-1.1 341.46-0.8 341.76-0.5 342.16-0.5L342.16-0.5 342.16 0ZM335.91-26.4L335.91-26.4Q335.91-27.4 336.59-28.1 337.26-28.8 338.26-28.8L338.26-28.8Q339.26-28.8 339.96-28.1 340.66-27.4 340.66-26.4L340.66-26.4Q340.66-25.4 339.96-24.75 339.26-24.1 338.26-24.1L338.26-24.1Q337.26-24.1 336.59-24.75 335.91-25.4 335.91-26.4ZM367.61-12.9L367.61-3.25Q367.61-2.85 367.71-2.38 367.81-1.9 368.04-1.5 368.26-1.1 368.54-0.8 368.81-0.5 369.21-0.5L369.21-0.5 369.21 0 362.76 0 362.76-0.5Q363.11-0.5 363.41-0.8 363.71-1.1 363.94-1.5 364.16-1.9 364.26-2.38 364.36-2.85 364.36-3.25L364.36-3.25 364.36-12.55Q364.36-14.35 363.86-15.7 363.36-17.05 362.51-17.95 361.66-18.85 360.59-19.28 359.51-19.7 358.41-19.7L358.41-19.7Q357.31-19.7 356.24-19.25 355.16-18.8 354.34-18.07 353.51-17.35 352.99-16.38 352.46-15.4 352.46-14.35L352.46-14.35 352.46-3.25Q352.46-2.85 352.56-2.38 352.66-1.9 352.89-1.5 353.11-1.1 353.39-0.8 353.66-0.5 354.06-0.5L354.06-0.5 354.06 0 347.56 0 347.56-0.5Q347.91-0.5 348.21-0.8 348.51-1.1 348.74-1.5 348.96-1.9 349.06-2.38 349.16-2.85 349.16-3.25L349.16-3.25 349.16-17.05Q349.16-17.9 348.91-18.68 348.66-19.45 347.46-19.5L347.46-19.5 347.46-19.95 352.46-21.55 352.46-18.8Q352.81-19.2 353.36-19.68 353.91-20.15 354.69-20.58 355.46-21 356.49-21.28 357.51-21.55 358.91-21.55L358.91-21.55Q361.26-21.55 362.91-20.75 364.56-19.95 365.61-18.68 366.66-17.4 367.14-15.88 367.61-14.35 367.61-12.9L367.61-12.9ZM394.21-10.1L376.86-10.1Q377.06-8.35 377.71-6.78 378.36-5.2 379.43-4 380.51-2.8 382.06-2.08 383.61-1.35 385.66-1.35L385.66-1.35Q386.76-1.35 387.98-1.68 389.21-2 390.26-2.6 391.31-3.2 392.13-4.08 392.96-4.95 393.26-6.05L393.26-6.05 393.71-6.05 393.71-2.3Q393.41-2.3 393.03-2.1 392.66-1.9 392.16-1.6L392.16-1.6Q391.16-1 389.46-0.33 387.76 0.35 384.96 0.35L384.96 0.35Q382.71 0.35 380.68-0.3 378.66-0.95 377.11-2.3 375.56-3.65 374.63-5.75 373.71-7.85 373.71-10.75L373.71-10.75Q373.71-12.6 374.33-14.5 374.96-16.4 376.23-17.93 377.51-19.45 379.51-20.4 381.51-21.35 384.31-21.35L384.31-21.35Q386.81-21.35 388.68-20.5 390.56-19.65 391.78-18.15 393.01-16.65 393.61-14.6 394.21-12.55 394.21-10.1L394.21-10.1ZM384.11-19.7L384.11-19.7Q382.36-19.7 381.08-19 379.81-18.3 378.91-17.2 378.01-16.1 377.51-14.7 377.01-13.3 376.86-11.9L376.86-11.9 391.11-11.9Q391.06-13.35 390.58-14.75 390.11-16.15 389.26-17.25 388.41-18.35 387.11-19.03 385.81-19.7 384.11-19.7ZM411.3-32.5L411.3-33 418.4-33Q423.95-33 426.83-30.88 429.7-28.75 429.7-24.85L429.7-24.85Q429.7-22.75 428.7-21.1 427.7-19.45 426.08-18.32 424.45-17.2 422.43-16.6 420.4-16 418.4-16L418.4-16 416.5-16 416.5-3.25Q416.5-2.85 416.6-2.38 416.7-1.9 416.93-1.5 417.15-1.1 417.43-0.8 417.7-0.5 418.1-0.5L418.1-0.5 418.35-0.5 418.35 0 411.3 0 411.3-0.5 411.55-0.5Q411.9-0.5 412.2-0.8 412.5-1.1 412.7-1.5 412.9-1.9 413-2.38 413.1-2.85 413.1-3.25L413.1-3.25 413.1-29.9Q413.1-30.6 412.7-31.5 412.3-32.4 411.55-32.5L411.55-32.5 411.3-32.5ZM417.2-31.25L416.5-31.25 416.5-17.75 418-17.75Q420-17.75 421.58-18.3 423.15-18.85 424.2-19.75 425.25-20.65 425.8-21.8 426.35-22.95 426.35-24.15L426.35-24.15Q426.35-25.6 425.88-26.88 425.4-28.15 424.33-29.13 423.25-30.1 421.5-30.68 419.75-31.25 417.2-31.25L417.2-31.25ZM447.65-20.4L446.15-17.35Q445.55-18.35 444.9-18.6 444.25-18.85 443.4-18.85L443.4-18.85Q442.85-18.85 442.23-18.6 441.6-18.35 441-17.95 440.4-17.55 439.83-17.07 439.25-16.6 438.85-16.2L438.85-16.2 438.85-3.2Q438.85-2.8 438.95-2.35 439.05-1.9 439.28-1.48 439.5-1.05 439.78-0.78 440.05-0.5 440.45-0.5L440.45-0.5 440.45 0 433.95 0 433.95-0.5Q434.3-0.5 434.6-0.78 434.9-1.05 435.13-1.48 435.35-1.9 435.45-2.35 435.55-2.8 435.55-3.2L435.55-3.2 435.55-17.15Q435.55-17.85 435.1-18.55 434.65-19.25 433.8-19.45L433.8-19.45 433.8-19.85 438.85-21.35 438.85-18.35Q439.3-18.9 439.8-19.43 440.3-19.95 440.93-20.38 441.55-20.8 442.3-21.08 443.05-21.35 444.05-21.35L444.05-21.35Q444.75-21.35 445.85-21.05 446.95-20.75 447.65-20.4L447.65-20.4ZM461.3 0.35L461.3 0.35Q458.8 0.35 456.8-0.48 454.8-1.3 453.37-2.73 451.95-4.15 451.17-6.1 450.4-8.05 450.4-10.35L450.4-10.35Q450.4-12.8 451.25-14.83 452.1-16.85 453.6-18.3 455.1-19.75 457.15-20.55 459.2-21.35 461.6-21.35L461.6-21.35Q464-21.35 466-20.58 468-19.8 469.45-18.4 470.9-17 471.7-15.08 472.5-13.15 472.5-10.85L472.5-10.85Q472.5-8.7 471.77-6.68 471.05-4.65 469.62-3.1 468.2-1.55 466.12-0.6 464.05 0.35 461.3 0.35ZM461-19.7L461-19.7Q459.2-19.6 457.82-18.82 456.45-18.05 455.52-16.82 454.6-15.6 454.12-14.05 453.65-12.5 453.65-10.9L453.65-10.9Q453.65-9.05 454.22-7.33 454.8-5.6 455.87-4.25 456.95-2.9 458.45-2.1 459.95-1.3 461.8-1.3L461.8-1.3Q463.65-1.3 465.07-2.1 466.5-2.9 467.45-4.17 468.4-5.45 468.87-7.05 469.35-8.65 469.35-10.25L469.35-10.25Q469.35-11.9 468.85-13.58 468.35-15.25 467.3-16.63 466.25-18 464.67-18.85 463.1-19.7 461-19.7ZM487.35 9.3L487.35 9.3Q488.85 9.3 490.2 9.03 491.55 8.75 492.57 8.25 493.6 7.75 494.2 7.05 494.8 6.35 494.8 5.55L494.8 5.55Q494.8 4.7 493.97 4.1 493.15 3.5 491.75 3.05 490.35 2.6 488.5 2.27 486.65 1.95 484.65 1.6L484.65 1.6 482.1 1.15Q480.95 2.05 480.5 3.05 480.05 4.05 480.05 4.8L480.05 4.8Q480.05 5.85 480.62 6.68 481.2 7.5 482.17 8.1 483.15 8.7 484.47 9 485.8 9.3 487.35 9.3ZM483.85-1.7L490.1-0.7Q492.1-0.4 493.42 0.1 494.75 0.6 495.55 1.28 496.35 1.95 496.65 2.78 496.95 3.6 496.95 4.55L496.95 4.55Q496.95 6.25 496.02 7.5 495.1 8.75 493.62 9.58 492.15 10.4 490.27 10.8 488.4 11.2 486.45 11.2L486.45 11.2Q484.55 11.2 482.8 10.83 481.05 10.45 479.7 9.7 478.35 8.95 477.55 7.83 476.75 6.7 476.75 5.25L476.75 5.25Q476.75 3.95 477.55 2.78 478.35 1.6 480.15 0.45L480.15 0.45Q478.4-0.45 477.47-1.98 476.55-3.5 476.55-5.1L476.55-5.1Q476.55-6.05 477-6.98 477.45-7.9 478.45-8.7L478.45-8.7Q477.6-9.7 477.25-10.7 476.9-11.7 476.9-12.85L476.9-12.85Q476.9-14.65 477.65-16.2 478.4-17.75 479.7-18.9 481-20.05 482.75-20.7 484.5-21.35 486.5-21.35L486.5-21.35Q488.6-21.35 490.5-20.63 492.4-19.9 493.7-18.75L493.7-18.75 497.3-18.75 497.3-16.95 495-16.95Q495.35-16.2 495.7-15.18 496.05-14.15 496.05-13.05L496.05-13.05Q496.05-11.45 495.3-10.03 494.55-8.6 493.22-7.53 491.9-6.45 490.12-5.83 488.35-5.2 486.35-5.2L486.35-5.2Q484.5-5.2 482.75-5.75 481-6.3 479.65-7.35L479.65-7.35Q479.1-7 478.9-6.48 478.7-5.95 478.7-5.4L478.7-5.4Q478.7-3.8 480.15-2.93 481.6-2.05 483.85-1.7L483.85-1.7ZM485.9-19.6L485.9-19.6Q484.7-19.6 483.65-19.18 482.6-18.75 481.8-18 481-17.25 480.52-16.18 480.05-15.1 480.05-13.75L480.05-13.75Q480.05-12.1 480.72-10.8 481.4-9.5 482.45-8.65 483.5-7.8 484.77-7.35 486.05-6.9 487.2-6.9L487.2-6.9Q488.45-6.9 489.47-7.38 490.5-7.85 491.25-8.68 492-9.5 492.4-10.6 492.8-11.7 492.8-12.9L492.8-12.9Q492.8-14.4 492.2-15.65 491.6-16.9 490.62-17.78 489.65-18.65 488.4-19.13 487.15-19.6 485.9-19.6ZM515.39-20.4L513.89-17.35Q513.29-18.35 512.64-18.6 511.99-18.85 511.14-18.85L511.14-18.85Q510.59-18.85 509.97-18.6 509.34-18.35 508.74-17.95 508.14-17.55 507.57-17.07 506.99-16.6 506.59-16.2L506.59-16.2 506.59-3.2Q506.59-2.8 506.69-2.35 506.79-1.9 507.02-1.48 507.24-1.05 507.52-0.78 507.79-0.5 508.19-0.5L508.19-0.5 508.19 0 501.69 0 501.69-0.5Q502.04-0.5 502.34-0.78 502.64-1.05 502.87-1.48 503.09-1.9 503.19-2.35 503.29-2.8 503.29-3.2L503.29-3.2 503.29-17.15Q503.29-17.85 502.84-18.55 502.39-19.25 501.54-19.45L501.54-19.45 501.54-19.85 506.59-21.35 506.59-18.35Q507.04-18.9 507.54-19.43 508.04-19.95 508.67-20.38 509.29-20.8 510.04-21.08 510.79-21.35 511.79-21.35L511.79-21.35Q512.49-21.35 513.59-21.05 514.69-20.75 515.39-20.4L515.39-20.4ZM536.59 0L531.74 0 531.74-2.55 531.49-2.3Q530.24-1.05 528.62-0.35 526.99 0.35 524.69 0.35L524.69 0.35Q522.94 0.35 521.69-0.05 520.44-0.45 519.64-1.18 518.84-1.9 518.47-2.85 518.09-3.8 518.09-4.85L518.09-4.85Q518.09-6.55 519.02-7.85 519.94-9.15 521.69-10.15 523.44-11.15 525.97-11.98 528.49-12.8 531.74-13.6L531.74-13.6Q531.64-15.55 530.94-16.75 530.24-17.95 529.29-18.63 528.34-19.3 527.29-19.53 526.24-19.75 525.49-19.75L525.49-19.75Q524.19-19.75 523.22-19.35 522.24-18.95 521.52-18.32 520.79-17.7 520.29-16.98 519.79-16.25 519.49-15.6L519.49-15.6 519.04-15.6 519.04-19.25Q519.44-19.3 519.79-19.5 520.14-19.7 520.64-19.9L520.64-19.9Q521.39-20.2 522.69-20.78 523.99-21.35 526.34-21.35L526.34-21.35Q529.09-21.35 530.79-20.65 532.49-19.95 533.42-18.8 534.34-17.65 534.64-16.18 534.94-14.7 534.94-13.15L534.94-13.15 534.94-3.25Q534.94-2.25 535.39-1.38 535.84-0.5 536.59-0.5L536.59-0.5 536.59 0ZM531.19-4.15L531.74-4.75 531.74-11.9 531.24-11.8Q530.04-11.5 528.32-11 526.59-10.5 525.04-9.7 523.49-8.9 522.39-7.8 521.29-6.7 521.29-5.25L521.29-5.25Q521.29-3.65 522.59-2.6 523.89-1.55 525.99-1.55L525.99-1.55Q527.64-1.55 528.89-2.27 530.14-3 531.19-4.15L531.19-4.15ZM573.39-12.6L573.39-3.25Q573.39-2.85 573.49-2.38 573.59-1.9 573.79-1.5 573.99-1.1 574.26-0.8 574.54-0.5 574.94-0.5L574.94-0.5 574.94 0 568.44 0 568.44-0.5Q568.84-0.5 569.14-0.8 569.44-1.1 569.66-1.5 569.89-1.9 569.99-2.38 570.09-2.85 570.09-3.25L570.09-3.25 570.09-14.05Q570.09-15.2 569.76-16.25 569.44-17.3 568.79-18.07 568.14-18.85 567.19-19.33 566.24-19.8 565.04-19.8L565.04-19.8Q563.69-19.8 562.71-19.18 561.74-18.55 561.11-17.65 560.49-16.75 560.19-15.83 559.89-14.9 559.89-14.3L559.89-14.3 559.89-3.25Q559.89-2.85 559.99-2.38 560.09-1.9 560.31-1.5 560.54-1.1 560.81-0.8 561.09-0.5 561.49-0.5L561.49-0.5 561.49 0 555.04 0 555.04-0.5Q555.39-0.5 555.69-0.8 555.99-1.1 556.21-1.5 556.44-1.9 556.54-2.38 556.64-2.85 556.64-3.25L556.64-3.25 556.64-14.35Q556.64-15.55 556.21-16.57 555.79-17.6 555.06-18.3 554.34-19 553.41-19.4 552.49-19.8 551.54-19.8L551.54-19.8Q550.24-19.8 549.26-19.3 548.29-18.8 547.66-18.05 547.04-17.3 546.71-16.43 546.39-15.55 546.39-14.75L546.39-14.75 546.39-3.25Q546.39-2.85 546.49-2.38 546.59-1.9 546.81-1.5 547.04-1.1 547.31-0.8 547.59-0.5 547.99-0.5L547.99-0.5 547.99 0 541.54 0 541.54-0.5Q541.89-0.5 542.19-0.8 542.49-1.1 542.71-1.5 542.94-1.9 543.04-2.38 543.14-2.85 543.14-3.25L543.14-3.25 543.14-16.6Q543.14-17 543.09-17.5 543.04-18 542.89-18.45 542.74-18.9 542.39-19.2 542.04-19.5 541.44-19.5L541.44-19.5 541.44-19.95 546.39-21.6 546.39-19.05Q547.14-19.9 548.46-20.7 549.79-21.5 551.94-21.5L551.94-21.5Q553.34-21.5 554.44-21.1 555.54-20.7 556.36-20.08 557.19-19.45 557.79-18.65 558.39-17.85 558.79-17.1L558.79-17.1Q559.19-17.85 559.74-18.63 560.29-19.4 561.06-20.05 561.84-20.7 562.91-21.1 563.99-21.5 565.44-21.5L565.44-21.5Q568.24-21.5 569.84-20.5 571.44-19.5 572.21-18.1 572.99-16.7 573.19-15.18 573.39-13.65 573.39-12.6L573.39-12.6ZM612.03-12.6L612.03-3.25Q612.03-2.85 612.13-2.38 612.24-1.9 612.43-1.5 612.63-1.1 612.91-0.8 613.18-0.5 613.58-0.5L613.58-0.5 613.58 0 607.08 0 607.08-0.5Q607.49-0.5 607.78-0.8 608.08-1.1 608.31-1.5 608.53-1.9 608.63-2.38 608.74-2.85 608.74-3.25L608.74-3.25 608.74-14.05Q608.74-15.2 608.41-16.25 608.08-17.3 607.43-18.07 606.78-18.85 605.83-19.33 604.88-19.8 603.68-19.8L603.68-19.8Q602.33-19.8 601.36-19.18 600.38-18.55 599.76-17.65 599.13-16.75 598.83-15.83 598.53-14.9 598.53-14.3L598.53-14.3 598.53-3.25Q598.53-2.85 598.63-2.38 598.74-1.9 598.96-1.5 599.18-1.1 599.46-0.8 599.74-0.5 600.13-0.5L600.13-0.5 600.13 0 593.68 0 593.68-0.5Q594.03-0.5 594.33-0.8 594.63-1.1 594.86-1.5 595.08-1.9 595.18-2.38 595.28-2.85 595.28-3.25L595.28-3.25 595.28-14.35Q595.28-15.55 594.86-16.57 594.43-17.6 593.71-18.3 592.99-19 592.06-19.4 591.13-19.8 590.18-19.8L590.18-19.8Q588.88-19.8 587.91-19.3 586.93-18.8 586.31-18.05 585.68-17.3 585.36-16.43 585.03-15.55 585.03-14.75L585.03-14.75 585.03-3.25Q585.03-2.85 585.13-2.38 585.24-1.9 585.46-1.5 585.68-1.1 585.96-0.8 586.24-0.5 586.63-0.5L586.63-0.5 586.63 0 580.18 0 580.18-0.5Q580.53-0.5 580.83-0.8 581.13-1.1 581.36-1.5 581.58-1.9 581.68-2.38 581.78-2.85 581.78-3.25L581.78-3.25 581.78-16.6Q581.78-17 581.74-17.5 581.68-18 581.53-18.45 581.38-18.9 581.03-19.2 580.68-19.5 580.08-19.5L580.08-19.5 580.08-19.95 585.03-21.6 585.03-19.05Q585.78-19.9 587.11-20.7 588.43-21.5 590.58-21.5L590.58-21.5Q591.99-21.5 593.08-21.1 594.18-20.7 595.01-20.08 595.83-19.45 596.43-18.65 597.03-17.85 597.43-17.1L597.43-17.1Q597.83-17.85 598.38-18.63 598.93-19.4 599.71-20.05 600.49-20.7 601.56-21.1 602.63-21.5 604.08-21.5L604.08-21.5Q606.88-21.5 608.49-20.5 610.08-19.5 610.86-18.1 611.63-16.7 611.83-15.18 612.03-13.65 612.03-12.6L612.03-12.6ZM638.78-10.1L621.43-10.1Q621.63-8.35 622.28-6.78 622.93-5.2 624.01-4 625.08-2.8 626.63-2.08 628.18-1.35 630.23-1.35L630.23-1.35Q631.33-1.35 632.56-1.68 633.78-2 634.83-2.6 635.88-3.2 636.71-4.08 637.53-4.95 637.83-6.05L637.83-6.05 638.28-6.05 638.28-2.3Q637.98-2.3 637.61-2.1 637.23-1.9 636.73-1.6L636.73-1.6Q635.73-1 634.03-0.33 632.33 0.35 629.53 0.35L629.53 0.35Q627.28 0.35 625.26-0.3 623.23-0.95 621.68-2.3 620.13-3.65 619.21-5.75 618.28-7.85 618.28-10.75L618.28-10.75Q618.28-12.6 618.91-14.5 619.53-16.4 620.81-17.93 622.08-19.45 624.08-20.4 626.08-21.35 628.88-21.35L628.88-21.35Q631.38-21.35 633.26-20.5 635.13-19.65 636.36-18.15 637.58-16.65 638.18-14.6 638.78-12.55 638.78-10.1L638.78-10.1ZM628.68-19.7L628.68-19.7Q626.93-19.7 625.66-19 624.38-18.3 623.48-17.2 622.58-16.1 622.08-14.7 621.58-13.3 621.43-11.9L621.43-11.9 635.68-11.9Q635.63-13.35 635.16-14.75 634.68-16.15 633.83-17.25 632.98-18.35 631.68-19.03 630.38-19.7 628.68-19.7ZM656.63-20.4L655.13-17.35Q654.53-18.35 653.88-18.6 653.23-18.85 652.38-18.85L652.38-18.85Q651.83-18.85 651.2-18.6 650.58-18.35 649.98-17.95 649.38-17.55 648.8-17.07 648.23-16.6 647.83-16.2L647.83-16.2 647.83-3.2Q647.83-2.8 647.93-2.35 648.03-1.9 648.25-1.48 648.48-1.05 648.75-0.78 649.03-0.5 649.43-0.5L649.43-0.5 649.43 0 642.93 0 642.93-0.5Q643.28-0.5 643.58-0.78 643.88-1.05 644.1-1.48 644.33-1.9 644.43-2.35 644.53-2.8 644.53-3.2L644.53-3.2 644.53-17.15Q644.53-17.85 644.08-18.55 643.63-19.25 642.78-19.45L642.78-19.45 642.78-19.85 647.83-21.35 647.83-18.35Q648.28-18.9 648.78-19.43 649.28-19.95 649.9-20.38 650.53-20.8 651.28-21.08 652.03-21.35 653.03-21.35L653.03-21.35Q653.73-21.35 654.83-21.05 655.93-20.75 656.63-20.4L656.63-20.4Z" opacity="1" transform="matrix(1,0,0,1,0,0)" fill="#ffffff" class="slogan-text-1" data-fill-palette-color="secondary" id="text-1"></path></svg></g></svg></g></svg></g></svg></g></svg></g></svg></g></svg></g><g><path d="M0 123.6c0-68.262 55.338-123.6 123.6-123.6 56.37 0 103.927 37.736 118.786 89.325h-1.657c-14.811-50.698-61.645-87.734-117.129-87.734-67.384 0-122.009 54.625-122.009 122.009 0 67.384 54.625 122.009 122.009 122.009 55.484 0 102.318-37.036 117.129-87.734h1.657c-14.859 51.589-62.415 89.325-118.786 89.325-68.262 0-123.6-55.338-123.6-123.6z" fill="#ffffff" stroke="transparent" data-fill-palette-color="tertiary"></path></g></svg></g><defs></defs></svg><rect width="395.52" height="247.2" fill="none" stroke="none" visibility="hidden"></rect></g></svg></g></svg>